<svg width="20" height="20" viewBox="0 0 20 20" fill="none" xmlns="http://www.w3.org/2000/svg">
<path d="M15 6.22848V4.38185C15 3.80641 14.8707 3.23662 14.6194 2.70499C14.3681 2.17336 13.9998 1.69031 13.5355 1.28341C13.0712 0.876521 12.52 0.553756 11.9134 0.333548C11.3068 0.11334 10.6566 0 10 0C9.34339 0 8.69321 0.11334 8.08658 0.333548C7.47995 0.553756 6.92876 0.876521 6.46447 1.28341C6.00017 1.69031 5.63188 2.17336 5.3806 2.70499C5.12933 3.23662 5 3.80641 5 4.38185V8.76369C5 8.92971 5.07525 9.08893 5.20921 9.20633C5.34316 9.32372 5.52485 9.38967 5.71429 9.38967C5.90373 9.38967 6.08541 9.32372 6.21936 9.20633C6.35332 9.08893 6.42857 8.92971 6.42857 8.76369V7.48044H12.1429V6.22848H6.42857V4.38185C6.42857 3.55175 6.80485 2.75565 7.47462 2.16868C8.14439 1.58171 9.0528 1.25196 10 1.25196C10.9472 1.25196 11.8556 1.58171 12.5254 2.16868C13.1952 2.75565 13.5714 3.55175 13.5714 4.38185V8.73239C13.5714 8.89841 13.6467 9.05763 13.7806 9.17503C13.9146 9.29242 14.0963 9.35837 14.2857 9.35837C14.4752 9.35837 14.6568 9.29242 14.7908 9.17503C14.9247 9.05763 15 8.89841 15 8.73239V7.48044H18.5714V18.748H1.42857V7.48044H3.57143V6.22848H0V18.8044C0 19.1215 0.143737 19.4256 0.39959 19.6498C0.655443 19.874 1.00245 20 1.36429 20H18.6357C18.9975 20 19.3446 19.874 19.6004 19.6498C19.8563 19.4256 20 19.1215 20 18.8044V6.22848H15Z" fill="#282828"/>
</svg>
