<svg width="149" height="149" viewBox="0 0 149 149" fill="none" xmlns="http://www.w3.org/2000/svg">
<path d="M111.75 46.4022V32.6448C111.75 28.3578 110.787 24.1128 108.915 20.1521C107.043 16.1915 104.299 12.5928 100.84 9.56143C97.3807 6.53008 93.2743 4.12549 88.755 2.48493C84.2356 0.844381 79.3917 0 74.5 0C69.6083 0 64.7644 0.844381 60.245 2.48493C55.7257 4.12549 51.6193 6.53008 48.1603 9.56143C44.7013 12.5928 41.9575 16.1915 40.0855 20.1521C38.2135 24.1128 37.25 28.3578 37.25 32.6448V65.2895C37.25 66.5264 37.8106 67.7125 38.8086 68.5871C39.8066 69.4617 41.1601 69.953 42.5714 69.953C43.9828 69.953 45.3363 69.4617 46.3342 68.5871C47.3322 67.7125 47.8929 66.5264 47.8929 65.2895V55.7293H90.4643V46.4022H47.8929V32.6448C47.8929 26.4605 50.6961 20.5296 55.6859 16.1567C60.6757 11.7838 67.4434 9.32707 74.5 9.32707C81.5567 9.32707 88.3243 11.7838 93.3141 16.1567C98.3039 20.5296 101.107 26.4605 101.107 32.6448V65.0563C101.107 66.2932 101.668 67.4794 102.666 68.354C103.664 69.2285 105.017 69.7199 106.429 69.7199C107.84 69.7199 109.193 69.2285 110.191 68.354C111.189 67.4794 111.75 66.2932 111.75 65.0563V55.7293H138.357V139.673H10.6429V55.7293H26.6071V46.4022H0V140.093C0 142.455 1.07084 144.721 2.97694 146.391C4.88305 148.062 7.46829 149 10.1639 149H138.836C141.532 149 144.117 148.062 146.023 146.391C147.929 144.721 149 142.455 149 140.093V46.4022H111.75Z" fill="#807F7D"/>
</svg>
