<svg width="285" height="237" viewBox="0 0 285 237" fill="none" xmlns="http://www.w3.org/2000/svg">
<path d="M266.8 237H268.2H275.2H282.61C283.244 237 283.852 236.748 284.3 236.3C284.748 235.852 285 235.244 285 234.61V218.39C285 217.756 284.748 217.148 284.3 216.7C283.852 216.252 283.244 216 282.61 216H280.8H280.39C279.756 216 279.148 216.252 278.7 216.7C278.252 217.148 278 217.756 278 218.39V230.438H273.188H268.2H266.8H266.241C265.646 230.438 265.076 230.674 264.656 231.094C264.236 231.514 264 232.084 264 232.678V234.61C264 235.244 264.252 235.852 264.7 236.3C265.148 236.748 265.756 237 266.39 237H266.8Z" fill="black"/>
<path d="M266.8 0H268.2H275.2H282.61C283.244 0 283.852 0.251797 284.3 0.7C284.748 1.1482 285 1.7561 285 2.38995V18.6101C285 19.2439 284.748 19.8518 284.3 20.3C283.852 20.7482 283.244 21 282.61 21H280.8H280.39C279.756 21 279.148 20.7482 278.7 20.3C278.252 19.8518 278 19.2439 278 18.6101V6.5625H273.188H268.2H266.8H266.241C265.646 6.5625 265.076 6.32644 264.656 5.90625C264.236 5.48606 264 4.91616 264 4.32192V2.38995C264 1.75609 264.252 1.1482 264.7 0.700001C265.148 0.251798 265.756 0 266.39 0H266.8Z" fill="black"/>
<path d="M18.2 237H16.8H9.8H2.38995C1.7561 237 1.1482 236.748 0.7 236.3C0.251797 235.852 0 235.244 0 234.61V218.39C0 217.756 0.251798 217.148 0.700001 216.7C1.1482 216.252 1.75609 216 2.38995 216H4.2H4.61005C5.24391 216 5.8518 216.252 6.3 216.7C6.7482 217.148 7 217.756 7 218.39V230.438H11.8125H16.8H18.2H18.7594C19.3537 230.438 19.9236 230.674 20.3438 231.094C20.7639 231.514 21 232.084 21 232.678V234.61C21 235.244 20.7482 235.852 20.3 236.3C19.8518 236.748 19.2439 237 18.6101 237H18.2Z" fill="black"/>
<path d="M18.2 0H16.8H9.8H2.38995C1.7561 0 1.1482 0.251797 0.7 0.7C0.251797 1.1482 0 1.7561 0 2.38995V18.6101C0 19.2439 0.251798 19.8518 0.700001 20.3C1.1482 20.7482 1.75609 21 2.38995 21H4.2H4.61005C5.24391 21 5.8518 20.7482 6.3 20.3C6.7482 19.8518 7 19.2439 7 18.6101V6.5625H11.8125H16.8H18.2H18.7594C19.3537 6.5625 19.9236 6.32644 20.3438 5.90625C20.7639 5.48606 21 4.91616 21 4.32192V2.38995C21 1.75609 20.7482 1.1482 20.3 0.700001C19.8518 0.251798 19.2439 0 18.6101 0H18.2Z" fill="black"/>
</svg>
