<svg width="16" height="16" viewBox="0 0 16 16" fill="none" xmlns="http://www.w3.org/2000/svg">
<path d="M8.40296 1.67063C8.78839 1.17418 9.25696 0.771048 9.781 0.485041C10.305 0.199035 10.8739 0.0359561 11.454 0.00543796C12.0342 -0.0250801 12.6137 0.0775816 13.1586 0.307359C13.7034 0.537136 14.2024 0.889368 14.6261 1.34325C15.0498 1.79713 15.3896 2.34345 15.6254 2.94994C15.8613 3.55644 15.9884 4.2108 15.9992 4.87437C16.0101 5.53795 15.9045 6.19728 15.6886 6.81342C15.4727 7.42956 15.151 7.99001 14.7425 8.46166L8.35563 15.831C8.30914 15.8847 8.25379 15.9273 8.1928 15.9564C8.13181 15.9854 8.06637 16.0004 8.00029 16.0004C7.9342 16.0004 7.86877 15.9854 7.80778 15.9564C7.74678 15.9273 7.69144 15.8847 7.64495 15.831L1.25811 8.46166C0.483418 7.5678 0.0344472 6.37121 0.00190129 5.11364C-0.0306446 3.85607 0.35566 2.63126 1.08278 1.68663C2.80815 -0.555717 5.8629 -0.563337 7.59761 1.67063L8.00029 2.18874L8.40296 1.67063ZM14.1671 2.44093C13.8538 2.03394 13.4684 1.7077 13.0364 1.48384C12.6044 1.25998 12.1358 1.14362 11.6615 1.14247C11.1871 1.14132 10.718 1.2554 10.2852 1.47715C9.85241 1.69891 9.46579 2.02327 9.15098 2.42874L8.37363 3.42915C8.32672 3.48958 8.26913 3.53795 8.20466 3.57107C8.14019 3.6042 8.07031 3.62133 7.99962 3.62133C7.92894 3.62133 7.85905 3.6042 7.79459 3.57107C7.73012 3.53795 7.67252 3.48958 7.62561 3.42915L6.84892 2.42874C6.55282 2.0437 6.19201 1.73061 5.78793 1.50808C5.38386 1.28555 4.94477 1.15811 4.49675 1.13335C4.04873 1.10859 3.60093 1.187 3.17996 1.36393C2.75898 1.54086 2.37341 1.81269 2.04618 2.16328C1.71894 2.51387 1.45671 2.93606 1.27506 3.40476C1.09341 3.87346 0.99605 4.37911 0.988769 4.89166C0.981489 5.40422 1.06443 5.91321 1.23268 6.3884C1.40092 6.86359 1.65102 7.29529 1.96813 7.65783L8.00029 14.6165L14.0318 7.65783C14.6284 6.96958 14.9741 6.04822 14.9992 5.07987C15.0244 4.11152 14.727 3.16836 14.1671 2.44093Z" fill="#807F7D"/>
</svg>
