<svg width="14" height="14" viewBox="0 0 14 14" fill="none" xmlns="http://www.w3.org/2000/svg">
<path d="M13.8796 3.16171C13.7989 2.80254 13.6743 2.45801 13.5096 2.13815C13.3513 1.80542 13.149 1.50238 12.9096 1.2397C12.5626 0.846355 12.1517 0.533485 11.6997 0.318504C10.7899 -0.106168 9.76967 -0.106168 8.85988 0.318504C8.43267 0.524169 8.04018 0.812792 7.69995 1.17147L7.64996 1.2397L7 1.97894L6.35004 1.2397L6.30004 1.17147C5.95982 0.812792 5.56732 0.524169 5.14011 0.318504C4.23033 -0.106168 3.21008 -0.106168 2.30029 0.318504C1.8483 0.533485 1.43737 0.846355 1.09037 1.2397C0.615761 1.76493 0.279791 2.43068 0.12043 3.16171C0.0356499 3.53294 -0.00471156 3.91548 0.00043705 4.29899C0.00043705 4.65951 0.0404345 5.01889 0.12043 5.36803C0.204258 5.72064 0.325121 6.06048 0.480407 6.38021C0.648112 6.7089 0.853201 7.01099 1.09037 7.27867L7 14L12.9096 7.27867C13.1466 7.01368 13.3496 6.71003 13.5096 6.38021C13.8344 5.74914 14.0036 5.0302 13.9996 4.29899C14.0047 3.91548 13.9644 3.53293 13.8796 3.16171ZM12.8796 5.01548C12.7599 5.53512 12.5219 6.00974 12.1897 6.39159L6.98 12.3054L1.77033 6.39159C1.60056 6.19713 1.45276 5.97937 1.33035 5.74334C1.21517 5.50983 1.12455 5.26171 1.06037 5.0041C1.00913 4.74653 0.982316 4.48345 0.980375 4.21938C0.981732 3.94775 1.00855 3.67707 1.06037 3.41191C1.12267 3.15356 1.21338 2.90519 1.33035 2.67268C1.45035 2.43385 1.59834 2.21776 1.77033 2.02443C2.02721 1.73618 2.32899 1.50478 2.66027 1.34206C3.32784 1.03832 4.07257 1.03832 4.74014 1.34206C5.07012 1.49787 5.3681 1.72646 5.62008 2.01305L6.98 3.57113L8.33991 2.01305C8.59172 1.72595 8.89071 1.49796 9.21986 1.34206C9.88743 1.03832 10.6322 1.03832 11.2997 1.34206C11.6307 1.50469 11.9327 1.73669 12.1897 2.02443C12.3637 2.21208 12.5097 2.43044 12.6196 2.67268C12.8513 3.13721 12.9719 3.66261 12.9696 4.19663C12.9832 4.47143 12.963 4.74703 12.9096 5.01548H12.8796Z" fill="#807F7D"/>
</svg>
