<svg width="16" height="16" viewBox="0 0 16 16" fill="none" xmlns="http://www.w3.org/2000/svg">
<path d="M7.73022 1.99808C6.02838 -0.668263 2.48931 -0.665704 0.791469 2.00384C0.221928 2.8991 -0.0544768 3.9871 0.00890548 5.08419C0.0722877 6.18128 0.471576 7.22028 1.13938 8.02582L7.58054 15.7957C7.63397 15.8601 7.69866 15.9115 7.77058 15.9466C7.84251 15.9818 7.92013 15.9999 7.9986 16C8.07707 16.0001 8.15471 15.982 8.22667 15.947C8.29864 15.9119 8.36339 15.8607 8.4169 15.7963L14.8541 8.05334C15.5289 7.24148 15.9311 6.19227 15.9919 5.08501C16.0528 3.97775 15.7685 2.88119 15.1877 1.98271C13.4681 -0.676584 9.92279 -0.650343 8.23466 2.03456L7.99643 2.41409L7.73079 1.99808H7.73022Z" fill="#262626"/>
</svg>
