<svg width="16" height="16" viewBox="0 0 16 16" fill="none" xmlns="http://www.w3.org/2000/svg">
<path d="M12 4.98279V3.50548C12 3.04513 11.8965 2.58929 11.6955 2.16399C11.4945 1.73869 11.1999 1.35224 10.8284 1.02673C10.457 0.701217 10.016 0.443005 9.53073 0.266838C9.04543 0.0906718 8.52529 0 8 0C7.47471 0 6.95457 0.0906718 6.46927 0.266838C5.98396 0.443005 5.54301 0.701217 5.17157 1.02673C4.80014 1.35224 4.5055 1.73869 4.30448 2.16399C4.10346 2.58929 4 3.04513 4 3.50548V7.01095C4 7.14377 4.0602 7.27115 4.16737 7.36506C4.27453 7.45898 4.41988 7.51174 4.57143 7.51174C4.72298 7.51174 4.86833 7.45898 4.97549 7.36506C5.08265 7.27115 5.14286 7.14377 5.14286 7.01095V5.98435H9.71429V4.98279H5.14286V3.50548C5.14286 2.8414 5.44388 2.20452 5.9797 1.73494C6.51551 1.26537 7.24224 1.00157 8 1.00157C8.75776 1.00157 9.48449 1.26537 10.0203 1.73494C10.5561 2.20452 10.8571 2.8414 10.8571 3.50548V6.98592C10.8571 7.11873 10.9173 7.24611 11.0245 7.34002C11.1317 7.43394 11.277 7.4867 11.4286 7.4867C11.5801 7.4867 11.7255 7.43394 11.8326 7.34002C11.9398 7.24611 12 7.11873 12 6.98592V5.98435H14.8571V14.9984H1.14286V5.98435H2.85714V4.98279H0V15.0435C0 15.2972 0.114989 15.5405 0.319672 15.7199C0.524354 15.8992 0.801964 16 1.09143 16H14.9086C15.198 16 15.4756 15.8992 15.6803 15.7199C15.885 15.5405 16 15.2972 16 15.0435V4.98279H12Z" fill="#807F7D"/>
</svg>
