<svg width="16" height="16" viewBox="0 0 16 16" fill="none" xmlns="http://www.w3.org/2000/svg">
<path d="M15.8624 3.61338C15.7702 3.20291 15.6278 2.80915 15.4395 2.44361C15.2587 2.06334 15.0274 1.71701 14.7539 1.4168C14.3573 0.967263 13.8876 0.609697 13.3711 0.364005C12.3313 -0.121335 11.1653 -0.121335 10.1256 0.364005C9.63734 0.59905 9.18878 0.928905 8.79995 1.33882L8.74281 1.4168L8 2.26164L7.25719 1.4168L7.20005 1.33882C6.81122 0.928905 6.36265 0.59905 5.87442 0.364005C4.83466 -0.121335 3.66866 -0.121335 2.62891 0.364005C2.11235 0.609697 1.64271 0.967263 1.24614 1.4168C0.703727 2.01707 0.319761 2.77793 0.137634 3.61338C0.0407427 4.03765 -0.00538464 4.47484 0.000499486 4.91313C0.000499486 5.32515 0.0462109 5.73587 0.137634 6.1349C0.233438 6.53787 0.371567 6.92626 0.549036 7.29167C0.740699 7.66731 0.975087 8.01256 1.24614 8.31847L8 16L14.7539 8.31847C15.0247 8.01563 15.2567 7.6686 15.4395 7.29167C15.8107 6.57045 16.0041 5.7488 15.9995 4.91313C16.0054 4.47484 15.9593 4.03764 15.8624 3.61338ZM14.7196 5.73197C14.5827 6.32585 14.3107 6.86827 13.9311 7.30467L7.97714 14.0634L2.02323 7.30467C1.82921 7.08244 1.6603 6.83357 1.5204 6.56381C1.38876 6.29695 1.2852 6.01338 1.21185 5.71898C1.1533 5.42461 1.12265 5.12395 1.12043 4.82215C1.12198 4.51172 1.15263 4.20236 1.21185 3.89933C1.28305 3.60407 1.38672 3.32022 1.5204 3.05449C1.65754 2.78154 1.82667 2.53459 2.02323 2.31363C2.31681 1.9842 2.6617 1.71975 3.04031 1.53378C3.80325 1.18665 4.65436 1.18665 5.4173 1.53378C5.79442 1.71185 6.13497 1.9731 6.42295 2.30063L7.97714 4.08129L9.53133 2.30063C9.81911 1.97252 10.1608 1.71196 10.537 1.53378C11.2999 1.18665 12.151 1.18665 12.914 1.53378C13.2922 1.71964 13.6374 1.98479 13.9311 2.31363C14.1299 2.52809 14.2967 2.77764 14.4225 3.05449C14.6871 3.58539 14.825 4.18584 14.8224 4.79615C14.838 5.1102 14.8149 5.42518 14.7539 5.73197H14.7196Z" fill="#908F8D"/>
</svg>
