<svg width="20" height="20" viewBox="0 0 20 20" fill="none" xmlns="http://www.w3.org/2000/svg">
<path d="M10.5037 2.08828C10.9855 1.46773 11.5712 0.96381 12.2263 0.606302C12.8813 0.248794 13.5924 0.0449451 14.3176 0.00679745C15.0427 -0.0313502 15.7672 0.096977 16.4482 0.384199C17.1292 0.67142 17.753 1.11171 18.2826 1.67906C18.8122 2.24641 19.237 2.92931 19.5318 3.68743C19.8266 4.44554 19.9855 5.2635 19.9991 6.09297C20.0126 6.92244 19.8806 7.7466 19.6108 8.51677C19.3409 9.28695 18.9388 9.98751 18.4281 10.5771L10.4445 19.7887C10.3864 19.8558 10.3172 19.9091 10.241 19.9455C10.1648 19.9818 10.083 20.0005 10.0004 20.0005C9.91775 20.0005 9.83596 19.9818 9.75972 19.9455C9.68348 19.9091 9.6143 19.8558 9.55618 19.7887L1.57264 10.5771C0.604273 9.45975 0.043059 7.96402 0.00237661 6.39206C-0.0383058 4.82009 0.444575 3.28907 1.35347 2.10828C3.51019 -0.694646 7.32862 -0.704171 9.49701 2.08828L10.0004 2.73592L10.5037 2.08828ZM17.7089 3.05117C17.3173 2.54242 16.8355 2.13462 16.2955 1.8548C15.7556 1.57498 15.1697 1.42953 14.5768 1.42809C13.9839 1.42665 13.3975 1.56925 12.8565 1.84644C12.3155 2.12364 11.8322 2.52909 11.4387 3.03593L10.467 4.28644C10.4084 4.36197 10.3364 4.42243 10.2558 4.46384C10.1752 4.50525 10.0879 4.52666 9.99953 4.52666C9.91117 4.52666 9.82382 4.50525 9.74323 4.46384C9.66265 4.42243 9.59066 4.36197 9.53201 4.28644L8.56116 3.03593C8.19102 2.55462 7.74001 2.16326 7.23492 1.8851C6.72983 1.60693 6.18096 1.44764 5.62094 1.41669C5.06092 1.38573 4.50117 1.48375 3.97494 1.70491C3.44872 1.92607 2.96677 2.26587 2.55772 2.7041C2.14868 3.14234 1.82088 3.67008 1.59382 4.25595C1.36676 4.84183 1.24506 5.47389 1.23596 6.11458C1.22686 6.75527 1.33054 7.39151 1.54085 7.9855C1.75115 8.57949 2.06378 9.11911 2.46017 9.57229L10.0004 18.2706L17.5397 9.57229C18.2854 8.71198 18.7177 7.56028 18.7491 6.34984C18.7805 5.1394 18.4087 3.96045 17.7089 3.05117Z" fill="#282828"/>
</svg>
