<svg width="12" height="12" viewBox="0 0 12 12" fill="none" xmlns="http://www.w3.org/2000/svg">
<path d="M11.865 11.2087L9.37226 8.72172C10.252 7.6743 10.6935 6.32767 10.6045 4.96269C10.5156 3.59771 9.90307 2.31976 8.89479 1.39539C7.88652 0.471013 6.5603 -0.0284207 5.19274 0.00125021C3.82519 0.0309212 2.52188 0.587406 1.55464 1.55464C0.587406 2.52188 0.0309212 3.82519 0.00125021 5.19274C-0.0284207 6.5603 0.471013 7.88652 1.39539 8.89479C2.31976 9.90307 3.59771 10.5156 4.96269 10.6045C6.32767 10.6935 7.6743 10.252 8.72173 9.37226L11.2087 11.865C11.2967 11.9501 11.4144 11.9977 11.5369 11.9977C11.6593 11.9977 11.777 11.9501 11.865 11.865C11.9515 11.7777 12 11.6598 12 11.5369C12 11.414 11.9515 11.296 11.865 11.2087ZM0.944133 5.31939C0.944133 4.45404 1.20074 3.60813 1.6815 2.88863C2.16226 2.16912 2.84558 1.60833 3.64505 1.27718C4.44452 0.946027 5.32424 0.859382 6.17296 1.0282C7.02167 1.19702 7.80127 1.61373 8.41316 2.22562C9.02505 2.83751 9.44175 3.6171 9.61057 4.46582C9.7794 5.31453 9.69275 6.19425 9.3616 6.99373C9.03044 7.7932 8.46966 8.47652 7.75015 8.95728C7.03064 9.43804 6.18473 9.69464 5.31939 9.69464C4.15947 9.69312 3.04749 9.23167 2.2273 8.41148C1.40711 7.59129 0.945656 6.47931 0.944133 5.31939Z" fill="#807F7D"/>
</svg>
