<svg width="15" height="17" viewBox="0 0 15 17" fill="none" xmlns="http://www.w3.org/2000/svg">
<path d="M7.55078 8.5C9.62185 8.5 11.3008 6.82107 11.3008 4.75C11.3008 2.67893 9.62185 1 7.55078 1C5.47971 1 3.80078 2.67893 3.80078 4.75C3.80078 6.82107 5.47971 8.5 7.55078 8.5Z" stroke="#807F7D"/>
<path d="M11.3008 10H11.5648C12.1131 10.0002 12.6425 10.2005 13.0535 10.5635C13.4645 10.9264 13.7288 11.4269 13.7968 11.971L14.0901 14.314C14.1165 14.5251 14.0976 14.7393 14.0349 14.9426C13.9721 15.1458 13.8668 15.3334 13.726 15.4928C13.5853 15.6523 13.4122 15.78 13.2182 15.8674C13.0243 15.9549 12.814 16 12.6013 16H2.50033C2.28761 16 2.07732 15.9549 1.88341 15.8674C1.6895 15.78 1.5164 15.6523 1.37561 15.4928C1.23481 15.3334 1.12954 15.1458 1.06678 14.9426C1.00402 14.7393 0.9852 14.5251 1.01158 14.314L1.30408 11.971C1.3721 11.4267 1.63664 10.9259 2.04795 10.563C2.45926 10.2 2.98901 9.99979 3.53758 10H3.80083" stroke="#807F7D" stroke-linecap="round" stroke-linejoin="round"/>
</svg>
