<svg width="18" height="18" viewBox="0 0 18 18" fill="none" xmlns="http://www.w3.org/2000/svg">
<path d="M9 4.77551C8.16447 4.77551 7.34771 5.02327 6.653 5.48746C5.95829 5.95166 5.41682 6.61143 5.09708 7.38336C4.77734 8.15528 4.69368 9.00469 4.85668 9.82416C5.01969 10.6436 5.42203 11.3964 6.01284 11.9872C6.60364 12.578 7.35637 12.9803 8.17584 13.1433C8.99531 13.3063 9.84472 13.2227 10.6166 12.9029C11.3886 12.5832 12.0483 12.0417 12.5125 11.347C12.9767 10.6523 13.2245 9.83553 13.2245 9C13.2232 7.87998 12.7777 6.8062 11.9858 6.01423C11.1938 5.22226 10.12 4.77677 9 4.77551ZM9 12.1224C8.38244 12.1224 7.77874 11.9393 7.26526 11.5962C6.75178 11.2531 6.35156 10.7655 6.11523 10.1949C5.8789 9.62436 5.81707 8.99654 5.93755 8.39084C6.05803 7.78514 6.35541 7.22878 6.79209 6.79209C7.22878 6.35541 7.78514 6.05803 8.39084 5.93755C8.99654 5.81707 9.62436 5.8789 10.1949 6.11523C10.7655 6.35156 11.2531 6.75178 11.5962 7.26526C11.9393 7.77874 12.1224 8.38244 12.1224 9C12.1215 9.82783 11.7922 10.6215 11.2069 11.2069C10.6215 11.7922 9.82783 12.1215 9 12.1224ZM13.0408 0H4.95918C3.64439 0.00150699 2.38388 0.524475 1.45418 1.45418C0.524475 2.38388 0.00150699 3.64439 0 4.95918V13.0408C0.00150699 14.3556 0.524475 15.6161 1.45418 16.5458C2.38388 17.4755 3.64439 17.9985 4.95918 18H13.0408C14.3556 17.9985 15.6161 17.4755 16.5458 16.5458C17.4755 15.6161 17.9985 14.3556 18 13.0408V4.95918C17.9985 3.64439 17.4755 2.38388 16.5458 1.45418C15.6161 0.524475 14.3556 0.00150699 13.0408 0ZM16.898 13.0408C16.8968 14.0634 16.4901 15.0439 15.767 15.767C15.0439 16.4901 14.0634 16.8968 13.0408 16.898H4.95918C3.93656 16.8968 2.95614 16.4901 2.23303 15.767C1.50993 15.0439 1.10318 14.0634 1.10204 13.0408V4.95918C1.10318 3.93656 1.50993 2.95614 2.23303 2.23303C2.95614 1.50993 3.93656 1.10318 4.95918 1.10204H13.0408C14.0634 1.10318 15.0439 1.50993 15.767 2.23303C16.4901 2.95614 16.8968 3.93656 16.898 4.95918V13.0408ZM14.6939 4.22449C14.6939 4.40613 14.64 4.58368 14.5391 4.73471C14.4382 4.88573 14.2948 5.00344 14.127 5.07295C13.9591 5.14246 13.7745 5.16065 13.5963 5.12521C13.4182 5.08978 13.2546 5.00231 13.1261 4.87387C12.9977 4.74544 12.9102 4.5818 12.8748 4.40365C12.8394 4.22551 12.8575 4.04086 12.927 3.87305C12.9966 3.70524 13.1143 3.56181 13.2653 3.4609C13.4163 3.35998 13.5939 3.30612 13.7755 3.30612C14.019 3.30641 14.2524 3.40326 14.4246 3.57543C14.5967 3.74759 14.6936 3.98101 14.6939 4.22449Z" fill="#807F7D"/>
</svg>
