<svg width="120" height="40" viewBox="0 0 120 40" fill="none" xmlns="http://www.w3.org/2000/svg">
<path d="M115.689 40H116.021H117.679H119.668L120 39.6444V35.0222L119.668 34.6667H119.005H118.674L118.342 35.0222V38.3333H117.202H116.021H115.689H115.337L115.026 38.6667V39.6444L115.357 40H115.689Z" fill="black"/>
<path d="M115.689 0H116.021H117.679H119.668L120 0.355554V4.97776L119.668 5.33331H119.005H118.674L118.342 4.97776V1.66666H117.202H116.021H115.689H115.337L115.026 1.33333V0.355554L115.357 0H115.689Z" fill="black"/>
<path d="M4.31089 40H3.97929H2.32125H0.331607L0 39.6444V35.0222L0.331607 34.6667H0.994822H1.32643L1.65804 35.0222V38.3333H2.79794H3.97929H4.31089H4.66323L4.97411 38.6667V39.6444L4.6425 40H4.31089Z" fill="black"/>
<path d="M4.31089 0H3.97929H2.32125H0.331607L0 0.355554V4.97776L0.331607 5.33331H0.994822H1.32643L1.65804 4.97776V1.66666H2.79794H3.97929H4.31089H4.66323L4.97411 1.33333V0.355554L4.6425 0H4.31089Z" fill="black"/>
<path d="M108.969 9H91.1044C90.5891 9 90.1597 9.43396 90.1597 9.95472V13.9472C90.1597 14.4679 90.5891 14.9019 91.1044 14.9019H97.1167V30.9585C97.1167 31.4792 97.5461 31.9132 98.0615 31.9132H102.098C102.614 31.9132 103.043 31.4792 103.043 30.9585V14.9019H109.055C109.571 14.9019 110 14.4679 110 13.9472V9.86792C109.914 9.34717 109.485 9 108.969 9Z" fill="black"/>
<path d="M81.1408 9H77.1898C76.6745 9 76.2451 9.43396 76.2451 9.95472V21.5849L76.331 22.4528L66.8831 9.34716C66.7113 9.17358 66.5395 9.08679 66.2819 9.08679H62.2451C61.7298 9.08679 61.3003 9.52075 61.3003 10.0415V31.0453C61.3003 31.566 61.7298 32 62.2451 32H66.196C66.7113 32 67.1408 31.566 67.1408 31.0453V19.2415L67.0549 18.3736L76.5886 31.566C76.7604 31.7396 76.9322 31.8264 77.1898 31.8264H81.1408C81.6561 31.8264 82.0856 31.3925 82.0856 30.8717V9.86792C82.0856 9.34717 81.6561 9 81.1408 9Z" fill="black"/>
<path d="M50.5646 9H46.5278C46.0124 9 45.583 9.43396 45.583 9.95472V30.9585C45.583 31.4792 46.0124 31.9132 46.5278 31.9132H50.5646C51.0799 31.9132 51.5094 31.4792 51.5094 30.9585V9.86792C51.5094 9.34717 51.0799 9 50.5646 9Z" fill="black"/>
<path d="M34.7607 9H29.6932C29.4355 9 29.1779 9.17358 29.092 9.43396L23.8527 21.2377L18.6134 9.43396C18.5276 9.17358 18.2699 9 18.0123 9H12.9448C12.4294 9 12 9.43396 12 9.95472V30.9585C12 31.4792 12.4294 31.9132 12.9448 31.9132H15.9509C16.4662 31.9132 16.8957 31.4792 16.8957 30.9585V17.3321L16.8098 16.4641L22.1349 28.4415C22.2208 28.7019 22.4785 28.8755 22.8221 28.8755H24.9693C25.227 28.8755 25.4846 28.7019 25.6564 28.4415L30.9816 16.4641L30.8957 17.3321V30.9585C30.8957 31.4792 31.3251 31.9132 31.8404 31.9132H34.8466C35.3619 31.9132 35.7913 31.4792 35.7913 30.9585V9.86792C35.6196 9.34717 35.1902 9 34.7607 9Z" fill="black"/>
</svg>
