<svg width="245" height="85" viewBox="0 0 245 85" fill="none" xmlns="http://www.w3.org/2000/svg">
<path d="M98.7812 31H85.2812V37M85.2812 56V37M85.2812 37H80.7812H98.7812" stroke="black" stroke-width="3"/>
<path d="M125.281 42.5C125.281 49.1813 120.08 54.5 113.781 54.5C107.483 54.5 102.281 49.1813 102.281 42.5C102.281 35.8187 107.483 30.5 113.781 30.5C120.08 30.5 125.281 35.8187 125.281 42.5Z" stroke="black" stroke-width="3"/>
<path d="M215.781 42.5C215.781 49.1813 210.58 54.5 204.281 54.5C197.983 54.5 192.781 49.1813 192.781 42.5C192.781 35.8187 197.983 30.5 204.281 30.5C210.58 30.5 215.781 35.8187 215.781 42.5Z" stroke="black" stroke-width="3"/>
<path d="M177.781 29V56" stroke="black" stroke-width="3"/>
<path d="M178.781 37C184.304 37 187.281 39.9772 187.281 45.5C187.281 51.0229 184.304 54.5 178.781 54.5" stroke="black" stroke-width="3"/>
<path d="M178.781 30.5C181.38 30.5 182.781 31.1909 182.781 33.4C182.781 35.6091 181.38 37 178.781 37" stroke="black" stroke-width="3"/>
<path d="M152.281 42.5C152.281 49.1813 147.08 54.5 140.781 54.5C134.483 54.5 129.281 49.1813 129.281 42.5C129.281 35.8187 134.483 30.5 140.781 30.5C147.08 30.5 152.281 35.8187 152.281 42.5Z" stroke="black" stroke-width="3"/>
<path d="M173.781 31H164.281M154.781 31H164.281M164.281 31V56" stroke="black" stroke-width="3"/>
<path d="M243.781 30L221.781 56M222.428 30L243.781 56" stroke="black" stroke-width="3"/>
<path d="M130.051 71.2C130.051 71.74 129.601 72.19 128.791 72.19C127.666 72.19 127.171 71.47 127.171 71.47L126.541 72.1C126.541 72.1 127.261 73.09 128.791 73.09C130.231 73.09 131.041 72.28 131.041 71.2C131.041 68.86 127.711 69.76 127.711 68.32C127.711 67.915 128.116 67.51 128.791 67.51C129.646 67.51 130.051 68.05 130.051 68.05L130.681 67.42C130.681 67.42 130.051 66.61 128.791 66.61C127.486 66.61 126.721 67.375 126.721 68.32C126.721 70.66 130.051 69.76 130.051 71.2ZM136.755 66.7V71.245L133.245 66.7H132.39V73H133.38V68.455L136.89 73H137.745V66.7H136.755ZM140.534 72.1V70.165H143.279V69.265H140.534V67.6H143.999V66.7H139.544V73H144.089V72.1H140.534ZM144.722 73H145.757L146.432 71.335H149.222L149.897 73H150.932L148.322 66.7H147.332L144.722 73ZM147.827 67.825L148.862 70.435H146.792L147.827 67.825ZM153.006 66.7H152.016V73H153.006V71.11L153.996 70.03L156.066 73H157.281L154.671 69.31L157.101 66.7H155.841L153.006 69.76V66.7ZM159.264 72.1V70.165H162.009V69.265H159.264V67.6H162.729V66.7H158.274V73H162.819V72.1H159.264ZM164.171 73H165.161V70.57H166.601L167.951 73H169.031L167.591 70.48C167.591 70.48 168.851 70.03 168.851 68.635C168.851 67.555 167.996 66.7 166.826 66.7H164.171V73ZM167.861 68.635C167.861 69.22 167.411 69.67 166.826 69.67H165.161V67.6H166.826C167.411 67.6 167.861 68.05 167.861 68.635ZM175.245 71.2C175.245 71.74 174.795 72.19 173.985 72.19C172.86 72.19 172.365 71.47 172.365 71.47L171.735 72.1C171.735 72.1 172.455 73.09 173.985 73.09C175.425 73.09 176.235 72.28 176.235 71.2C176.235 68.86 172.905 69.76 172.905 68.32C172.905 67.915 173.31 67.51 173.985 67.51C174.84 67.51 175.245 68.05 175.245 68.05L175.875 67.42C175.875 67.42 175.245 66.61 173.985 66.61C172.68 66.61 171.915 67.375 171.915 68.32C171.915 70.66 175.245 69.76 175.245 71.2ZM182.668 66.7H181.678V69.355H178.573V66.7H177.583V73H178.573V70.255H181.678V73H182.668V66.7ZM185.095 69.85C185.095 68.545 186.13 67.51 187.435 67.51C188.74 67.51 189.775 68.545 189.775 69.85C189.775 71.155 188.74 72.19 187.435 72.19C186.13 72.19 185.095 71.155 185.095 69.85ZM184.105 69.85C184.105 71.65 185.545 73.09 187.435 73.09C189.325 73.09 190.765 71.65 190.765 69.85C190.765 68.05 189.325 66.61 187.435 66.61C185.545 66.61 184.105 68.05 184.105 69.85ZM192.208 66.7V73H193.198V70.75H194.728C195.943 70.75 196.843 69.85 196.843 68.725C196.843 67.6 195.943 66.7 194.728 66.7H192.208ZM194.728 67.6C195.358 67.6 195.853 68.095 195.853 68.725C195.853 69.355 195.358 69.85 194.728 69.85H193.198V67.6H194.728Z" fill="black"/>
<path d="M38.5287 1C38.6004 1.05338 38.665 1.12344 38.7454 1.15847C42.0486 2.64476 45.1841 4.41795 48.3352 6.16947C51.5703 7.96769 54.8245 9.73255 58.0771 11.5024C64.0473 14.7502 70.0245 17.9897 75.9983 21.2342C76.1066 21.2925 76.2132 21.3576 76.3356 21.4277C76.3461 21.5828 76.3583 21.7379 76.3688 21.8997C76.4439 21.9481 76.5104 21.9981 76.5838 22.0332C76.7253 22.1016 76.7882 22.2017 76.7725 22.3551C76.7638 22.4469 76.7708 22.542 76.7708 22.6354C76.7708 35.9919 76.769 49.3485 76.7812 62.705C76.7812 63.112 76.6397 63.4106 76.3391 63.6425C76.0053 63.901 75.6505 64.1446 75.2765 64.3498C73.1337 65.5274 70.9753 66.6768 68.8378 67.8611C59.1292 73.2491 49.424 78.6454 39.7189 84.0418C39.4515 84.1902 39.1981 84.3704 38.8678 84.2036C38.464 84.327 38.1861 84.0685 37.882 83.9017C26.7228 77.7647 15.5653 71.6244 4.40254 65.4907C3.79783 65.1588 3.15467 64.8902 2.54646 64.5666C2.04835 64.3014 1.57123 63.9978 1.08885 63.7042C0.861647 63.5657 0.78125 63.3756 0.78125 63.102C0.791736 56.4446 0.786494 49.7855 0.789989 43.1281C0.793485 36.2838 0.805719 29.4396 0.814457 22.5953C0.814457 22.3768 0.748041 22.1299 1.05215 22.0198C1.08186 22.0098 1.11856 21.9514 1.11332 21.9214C1.05564 21.5694 1.34052 21.4727 1.57996 21.3392C13.4995 14.7519 25.419 8.16453 37.3385 1.5755C37.6601 1.39868 37.9642 1.1935 38.2753 1.00167C38.3609 1 38.4448 1 38.5287 1ZM17.9072 31.9718C17.8933 31.9584 17.8793 31.9451 17.8636 31.9334C17.8618 31.9317 17.8478 31.9468 17.8408 31.9551C17.8548 31.9684 17.8705 31.9818 17.8845 31.9935C17.8915 32.0719 17.8863 32.1553 17.909 32.2287C18.3057 33.5198 18.9052 34.7141 19.8158 35.7517C20.6966 36.7559 21.761 37.5049 23.112 37.8302C24.5556 38.1788 25.9346 37.9403 27.2698 37.3764C27.3642 37.3364 27.4499 37.283 27.5774 37.2163C27.4568 37.1412 27.3799 37.0862 27.2978 37.0412C24.2707 35.3897 21.2419 33.74 18.2131 32.0902C18.117 32.0418 18.0086 32.0118 17.9072 31.9718ZM26.6826 35.1278C26.7106 35.1395 26.7368 35.1495 26.7647 35.1612C26.756 35.1328 26.749 35.1028 26.7403 35.0745C26.6162 34.7925 26.4694 34.5173 26.3715 34.2254C25.9713 33.026 26.1723 31.8834 26.7647 30.7857C27.3293 29.7398 28.1297 28.8658 29.0298 28.0801C29.9369 27.2877 30.8632 26.5171 31.8069 25.7664C32.1442 25.4978 32.5357 25.2676 32.9412 25.1042C33.504 24.8756 34.1 25.0758 34.467 25.5445C34.5998 25.7147 34.6959 25.9099 34.82 26.0884C34.9494 26.2768 35.0682 26.4804 35.2307 26.6388C36.0924 27.4762 36.9662 28.3036 37.8384 29.131C37.8978 29.1877 37.9782 29.2244 38.097 29.3028C38.097 29.0826 38.097 28.9241 38.097 28.7673C38.097 20.6553 38.097 12.5433 38.097 4.42963C38.097 4.05598 38.1093 3.68232 38.1093 3.30866C38.1093 3.14018 38.1127 2.9667 37.9694 2.83826C37.37 3.07846 3.26652 22.0015 3.04631 22.2217C3.17913 22.3001 3.30672 22.3785 3.4378 22.4502C11.0614 26.6188 18.6867 30.7857 26.3121 34.9527C26.4292 35.0161 26.5585 35.0694 26.6826 35.1278ZM39.4533 2.93C39.4533 3.15686 39.4533 3.29865 39.4533 3.44044C39.4585 12.3531 39.4637 21.2642 39.4585 30.1769C39.4585 30.4771 39.5581 30.6623 39.7941 30.8508C42.2059 32.7775 44.6056 34.7141 47.0104 36.6492C47.1677 36.7759 47.3303 36.8977 47.5015 37.0295C56.5111 32.0452 65.4997 27.0709 74.4865 22.0966C74.4952 22.0916 74.4987 22.0749 74.5022 22.0615C74.5057 22.0482 74.5057 22.0349 74.5127 21.9831C62.8588 15.651 51.191 9.31052 39.4533 2.93ZM38.1232 58.2795C38.1232 58.1911 38.1232 58.1127 38.1232 58.0343C38.1232 56.5397 38.1162 55.045 38.125 53.5504C38.1425 50.7897 38.1757 48.029 38.1896 45.2683C38.1931 44.616 38.146 43.9638 38.125 43.3116C38.118 43.0764 38.0131 42.9279 37.7894 42.8061C34.9633 41.2648 32.1408 39.7185 29.3234 38.1638C29.0997 38.0404 28.9162 38.0404 28.6977 38.1421C28.2975 38.3306 27.8973 38.5224 27.4848 38.6876C27.0234 38.8727 26.5603 39.0679 26.0779 39.188C25.2023 39.4049 24.3092 39.3999 23.4143 39.2798C21.8047 39.0662 20.4187 38.439 19.3369 37.2663C18.2446 36.0837 17.3987 34.7592 16.8778 33.2562C16.7765 32.966 16.6681 32.6757 16.5423 32.3955C16.4514 32.192 16.3256 32.0018 16.2189 31.8133C15.8974 31.8617 15.6247 31.9117 15.3486 31.9401C14.9221 31.9851 14.5883 32.182 14.2999 32.4705C13.8438 32.9259 13.5065 33.4664 13.3946 34.0703C13.2356 34.931 12.8388 35.6116 12.131 36.1537C11.8671 36.3556 11.7133 36.6425 11.6556 36.9761C11.5979 37.303 11.5263 37.6333 11.4162 37.9469C10.5406 40.4524 9.84323 43.0046 9.29269 45.5919C9.10219 46.491 8.92742 47.3984 8.82605 48.3109C8.7439 49.0499 8.79983 49.8022 8.76138 50.5478C8.73517 51.0516 8.67574 51.5554 8.5901 52.0541C8.50971 52.5262 8.38562 52.9933 8.26153 53.457C8.20385 53.6722 8.12346 53.8924 8.00636 54.0826C7.69701 54.5813 7.61662 54.9867 8.14793 55.6205C8.27726 55.7757 8.43106 55.9175 8.59535 56.0392C9.27696 56.5463 10.0372 56.8983 10.8796 57.0901C11.0544 57.1302 11.1925 57.1402 11.334 56.9967C11.4057 56.925 11.5525 56.8866 11.6626 56.89C11.9265 56.8983 12.1904 56.9333 12.4526 56.9717C12.5277 56.9817 12.5959 57.0368 12.6676 57.0735C12.9245 57.2036 13.1674 57.3704 13.4401 57.4555C14.431 57.7641 15.4569 57.8591 16.4968 57.8725C17.1837 57.8825 17.7936 57.7491 18.3092 57.287C18.5259 57.0918 18.7968 56.9634 19.1062 56.9784C19.8717 57.0134 20.6389 57.0635 21.4045 57.1002C21.726 57.1152 21.9602 57.2553 22.1228 57.5139C22.3185 57.8225 22.6296 57.9159 22.9809 57.9225C23.133 57.9259 23.2885 57.9142 23.4388 57.8875C24.0156 57.7841 24.5853 57.6456 25.1656 57.5722C25.98 57.4688 26.784 57.4521 27.4498 58.0593C27.5879 58.1844 27.8239 58.2228 28.0214 58.2762C28.1944 58.3229 28.3325 58.2762 28.4321 58.0994C28.7204 57.5889 29.2081 57.3971 29.7883 57.3721C30.192 57.3554 30.601 57.3654 31.0012 57.3237C31.6182 57.2586 32.1023 57.4171 32.4082 57.9592C32.4151 57.9709 32.4221 57.9826 32.4326 57.9926C32.6319 58.2028 33.0618 58.2028 33.2331 57.9692C33.5634 57.5205 34.0231 57.347 34.5718 57.3637C35.0315 57.3771 35.4912 57.4438 35.9508 57.4355C36.3528 57.4271 36.6115 57.5906 36.8142 57.8925C36.8963 58.0159 36.9767 58.1444 37.0763 58.2545C37.1358 58.3195 37.2284 58.3896 37.3105 58.3946C37.5657 58.4013 37.8366 58.4613 38.1232 58.2795ZM3.06728 63.2104C3.19487 63.2922 3.25953 63.3372 3.32769 63.3756C14.8994 69.7094 26.4694 76.0432 38.0411 82.377C38.0481 82.382 38.0673 82.3687 38.0795 82.3637C38.0918 82.3587 38.104 82.352 38.104 82.352C38.104 74.8305 38.104 67.3123 38.104 59.7575C37.8279 59.7575 37.5919 59.7691 37.356 59.7558C36.6464 59.7124 36.0347 59.5122 35.7603 58.8016C35.7516 58.7816 35.7201 58.7699 35.6956 58.7516C35.3636 58.7349 35.028 58.7266 34.6942 58.6999C34.5107 58.6849 34.3936 58.7349 34.2695 58.8784C33.7207 59.5006 32.5515 59.6957 31.8139 59.2904C31.6392 59.1936 31.4714 59.0502 31.3613 58.89C31.2494 58.7282 31.1271 58.6882 30.9471 58.6932C30.6534 58.6999 30.3598 58.7082 30.0662 58.6915C29.818 58.6765 29.6695 58.7549 29.5262 58.9634C29.0822 59.6157 28.4198 59.8575 27.6369 59.6273C27.2436 59.5106 26.8714 59.3121 26.5131 59.1119C26.3348 59.0135 26.1758 58.9501 25.9695 58.9551C25.5501 58.9651 25.1306 58.9684 24.7112 58.9534C24.4595 58.9451 24.2445 58.9968 24.0505 59.1453C23.8233 59.3204 23.5594 59.3838 23.2675 59.3721C22.4688 59.3388 21.768 59.0952 21.193 58.5481C21.1143 58.473 20.9867 58.408 20.8784 58.403C20.4048 58.3796 19.9294 58.3746 19.454 58.3779C19.3386 58.3796 19.1953 58.413 19.1149 58.483C18.7374 58.8133 18.2743 58.9518 17.7936 59.0468C16.7135 59.2604 15.6265 59.2203 14.5411 59.0919C13.7214 58.9951 12.9052 58.8583 12.1537 58.5197C11.8863 58.3979 11.7028 58.4296 11.4669 58.5614C9.41678 59.7041 7.3597 60.8367 5.30437 61.9727C4.58081 62.373 3.85726 62.7734 3.06728 63.2104ZM75.3569 61.8826C75.3569 61.7125 75.3569 61.6207 75.3569 61.5307C75.3516 58.3679 75.3499 55.2052 75.3429 52.0441C75.3359 48.7363 75.3184 45.4267 75.3132 42.1189C75.3027 35.9953 75.2957 29.87 75.2869 23.7463C75.2869 23.7196 75.2887 23.6929 75.2869 23.6663C75.2817 23.5662 75.2765 23.4661 75.2695 23.3126C66.4015 28.1985 57.5877 33.0544 48.7494 37.9253C48.8298 37.997 48.877 38.0454 48.9294 38.0854C51.7555 40.2456 54.5798 42.4058 57.4077 44.5643C57.5265 44.6544 57.6628 44.7295 57.8009 44.7862C59.9384 45.6736 62.0724 46.5694 64.2693 47.32C65.3861 47.702 66.4906 48.1124 67.6686 48.3076C68.2017 48.396 68.7312 48.5361 69.2416 48.7062C69.848 48.9097 70.3479 49.26 70.6642 49.8222C70.8285 50.1158 71.0417 50.3827 71.2217 50.6696C71.6377 51.3318 71.8946 52.0391 71.9226 52.8215C71.9593 53.839 71.601 54.7331 70.9998 55.5488C70.3216 56.4713 69.432 57.1719 68.4254 57.7457C68.324 57.8041 68.2279 57.8675 68.0898 57.9542C70.5209 59.2687 72.9013 60.5548 75.3569 61.8826ZM65.816 58.3079C65.4525 58.795 65.0505 59.1369 64.5576 59.3805C64.0141 59.649 63.4793 59.7124 62.9322 59.3688C62.7802 59.2737 62.5582 59.1953 62.387 59.222C61.5638 59.3538 60.7301 59.4655 60.0223 59.956C59.8755 60.0577 59.671 60.1144 59.4857 60.1311C58.93 60.1845 58.3689 60.1895 57.8149 60.2495C57.3937 60.2963 57.0529 60.2162 56.7645 59.9026C56.6736 59.8042 56.5146 59.7224 56.3783 59.7091C55.8644 59.659 55.3489 59.634 54.8315 59.6157C54.7197 59.6123 54.5729 59.6474 54.496 59.7174C53.9332 60.2395 53.2236 60.368 52.4896 60.388C51.9111 60.403 51.3815 60.2596 51.0354 59.7508C50.9743 59.6607 50.8519 59.5623 50.7471 59.5506C50.2752 59.5006 49.8016 59.4772 49.3279 59.4489C49.1042 59.4355 48.9469 59.5106 48.8036 59.6991C48.6708 59.8726 48.468 60.0444 48.2601 60.1111C47.318 60.4147 46.4354 60.2746 45.6804 59.6424C45.4847 59.4789 45.3116 59.3821 45.0582 59.4105C44.9202 59.4255 44.7768 59.4489 44.6405 59.4305C44.3032 59.3838 44.0777 59.5189 43.8401 59.7408C43.3542 60.1978 42.746 60.4364 42.0556 60.3997C41.5296 60.373 41.0874 60.1845 40.8165 59.7057C40.7169 59.5306 40.6644 59.2921 40.3865 59.2554C40.1139 59.2203 39.8447 59.1736 39.5354 59.1269C39.5354 59.3237 39.5354 59.4822 39.5354 59.639C39.5511 64.0545 39.5669 68.47 39.5808 72.8855C39.5913 75.9531 39.5983 79.0224 39.6053 82.0901C39.6053 82.1034 39.6053 82.1168 39.6053 82.1301C39.6123 82.2302 39.6193 82.3286 39.6315 82.4888C51.3029 76.0132 62.92 69.5676 74.5791 63.0987C74.4463 63.0186 74.3764 62.9752 74.3047 62.9369C71.7827 61.534 69.2625 60.1278 66.7371 58.7299C66.4522 58.5748 66.1411 58.4563 65.816 58.3079ZM47.3145 38.6709C44.7017 40.1188 42.1185 41.5501 39.5459 42.9763C39.5459 47.9072 39.5459 52.8115 39.5459 57.7424C39.6577 57.7524 39.7556 57.7557 39.8482 57.7724C40.259 57.8441 40.6732 57.9092 41.0804 57.9943C41.4404 58.071 41.7096 58.2662 41.8651 58.5981C41.9263 58.7299 42.0172 58.8483 42.1081 58.9951C42.3842 58.9251 42.7058 59.0835 42.898 58.7499C43.12 58.3663 43.4905 58.1928 43.9309 58.1611C44.4186 58.126 44.9097 58.1294 45.3938 58.0777C45.8622 58.026 46.2257 58.1711 46.4809 58.5297C46.7203 58.865 47.0524 58.9134 47.4299 58.8917C47.6082 58.8817 47.748 58.8367 47.8493 58.6782C48.0503 58.3579 48.3737 58.1978 48.7494 58.1611C49.0937 58.1277 49.445 58.1194 49.7911 58.1361C50.2507 58.1561 50.7069 58.2328 51.1665 58.2428C51.4636 58.2478 51.7031 58.3412 51.8481 58.5614C52.0788 58.9101 52.3917 58.9818 52.7814 58.9151C52.8496 58.9034 52.923 58.8967 52.9894 58.9067C53.311 58.9518 53.5574 58.845 53.7497 58.5948C53.9437 58.3412 54.2198 58.2261 54.5431 58.2078C55.4957 58.1511 56.422 58.2912 57.2714 58.6899C57.6454 58.865 57.9879 58.9384 58.3812 58.8934C58.5891 58.87 58.7989 58.8467 59.0069 58.8433C59.2288 58.84 59.4001 58.7466 59.5854 58.6448C59.8493 58.4997 60.1219 58.3529 60.412 58.2762C60.9224 58.1411 61.4432 58.036 61.9675 57.9642C62.4656 57.8958 62.9707 57.8925 63.4408 58.1344C63.5073 58.1678 63.6069 58.1861 63.675 58.1644C64.1242 58.021 64.5716 57.8875 64.832 57.4438C65.2008 56.8132 65.456 56.6414 66.3089 57.0351C66.5064 57.1269 66.6776 57.1302 66.8646 57.0434C67.0149 56.9751 67.1792 56.92 67.3121 56.8283C67.9185 56.4012 68.5372 55.9859 69.1087 55.5188C69.4216 55.2636 69.6837 54.935 69.9144 54.6047C70.5104 53.7539 70.6485 52.8265 70.264 51.8606C70.1154 51.4903 69.9092 51.1383 69.7099 50.788C69.3744 50.2025 68.8396 49.8639 68.1737 49.7004C68.0111 49.6604 67.8486 49.6187 67.6826 49.597C66.4889 49.4402 65.3371 49.1483 64.2116 48.7263C62.366 48.034 60.4994 47.3968 58.6486 46.7195C57.918 46.4526 57.2049 46.1373 56.5845 45.6719C54.3439 43.9888 52.1068 42.3024 49.8697 40.6142C49.0273 39.9754 48.1884 39.3348 47.3145 38.6709ZM2.2808 23.3426C2.2808 36.2838 2.2808 49.1383 2.2808 62.0628C4.70665 60.72 7.09055 59.3988 9.52689 58.051C9.36784 57.9943 9.26997 57.9576 9.17035 57.9225C8.15317 57.5656 7.34048 56.9584 6.748 56.0943C6.34602 55.5071 6.21494 54.8682 6.44913 54.186C6.58371 53.794 6.73926 53.4086 6.87034 53.015C6.99792 52.6346 7.16745 52.256 7.21115 51.8656C7.33174 50.7797 7.40689 49.6888 7.4803 48.5978C7.5572 47.4535 7.64982 46.3175 7.90674 45.1899C8.36115 43.1981 8.77886 41.1981 9.42727 39.2531C9.67719 38.5041 9.99353 37.7718 10.1875 37.0111C10.4025 36.1654 10.7433 35.4231 11.4843 34.8843C11.5175 34.8609 11.542 34.8259 11.5735 34.8009C11.7815 34.6257 11.8951 34.4089 11.9353 34.1453C12.0226 33.5581 12.2394 33.0093 12.533 32.4906C13.0818 31.5197 13.8647 30.8241 15.041 30.6056C15.1179 30.5906 15.1895 30.5489 15.3381 30.4905C10.9758 28.1051 6.6711 25.7464 2.2808 23.3426ZM33.3519 26.3402C32.3085 27.1826 31.3298 27.9583 30.3686 28.7523C30.0103 29.0476 29.6765 29.3745 29.3584 29.7098C28.6593 30.4438 28.0423 31.2328 27.6771 32.1753C27.3328 33.0661 27.4848 33.8768 28.121 34.6074C28.5195 35.0628 28.9756 35.4715 29.5296 35.7284C30.0645 35.9752 30.3004 36.3389 30.3109 36.8743C30.3161 37.1446 30.4682 37.293 30.7111 37.4215C33.0496 38.6742 35.381 39.9403 37.716 41.2014C38.104 41.4116 38.492 41.6201 38.8887 41.8336C41.3251 40.4775 43.7457 39.1313 46.2187 37.7534C46.0474 37.605 45.9216 37.4882 45.7853 37.3814C44.1948 36.1187 42.5887 34.8743 41.0175 33.5898C39.3414 32.2187 37.7003 30.8091 36.0452 29.4146C35.9298 29.3178 35.8197 29.2144 35.7149 29.1076C35.2465 28.6322 34.7851 28.1485 34.3097 27.6781C34.0737 27.4445 33.8815 27.1943 33.7382 26.8974C33.649 26.7156 33.5022 26.5538 33.3519 26.3402Z" fill="white" stroke="white" stroke-miterlimit="10"/>
<path d="M39.4492 2.9209C51.187 9.30142 62.8548 15.6419 74.5104 21.9741C74.5034 22.0258 74.5034 22.0391 74.4999 22.0525C74.4964 22.0641 74.4929 22.0825 74.4842 22.0875C65.4956 27.0618 56.5071 32.0361 47.4993 37.0204C47.328 36.8886 47.1655 36.7669 47.0082 36.6401C44.6033 34.7067 42.2019 32.7684 39.7918 30.8417C39.5558 30.6532 39.4562 30.4681 39.4562 30.1678C39.4615 21.2551 39.4545 12.3441 39.451 3.43134C39.4492 3.29122 39.4492 3.14943 39.4492 2.9209Z" fill="#A179A6"/>
<path d="M38.1073 58.2763C37.8224 58.4581 37.5497 58.3981 37.2893 58.3831C37.2072 58.3781 37.1128 58.308 37.0551 58.243C36.9555 58.1329 36.8769 58.0044 36.793 57.881C36.5902 57.5807 36.3316 57.4156 35.9296 57.4239C35.4717 57.4322 35.012 57.3672 34.5506 57.3522C34.0018 57.3355 33.5422 57.509 33.2119 57.9577C33.0406 58.1912 32.6106 58.1912 32.4114 57.9811C32.4027 57.9711 32.3939 57.9594 32.3869 57.9477C32.0811 57.4056 31.5952 57.2471 30.98 57.3121C30.578 57.3539 30.1708 57.3438 29.7671 57.3605C29.1868 57.3855 28.6992 57.579 28.4108 58.0878C28.3112 58.2646 28.1732 58.3113 28.0001 58.2646C27.8026 58.2113 27.5667 58.1729 27.4286 58.0478C26.7627 57.4406 25.9588 57.4573 25.1443 57.5607C24.5641 57.6341 23.9943 57.7742 23.4176 57.876C23.2673 57.9027 23.1117 57.9143 22.9597 57.911C22.6084 57.9043 22.2973 57.8109 22.1015 57.5023C21.9373 57.2438 21.7031 57.1053 21.3832 57.0886C20.6177 57.0519 19.8505 57.0019 19.085 56.9668C18.7756 56.9518 18.5065 57.0803 18.288 57.2754C17.7742 57.7375 17.1642 57.8693 16.4756 57.861C15.4357 57.8476 14.4098 57.7525 13.4188 57.4439C13.1462 57.3589 12.9032 57.192 12.6463 57.0619C12.5747 57.0269 12.5065 56.9719 12.4313 56.9602C12.1692 56.9218 11.9053 56.8868 11.6414 56.8784C11.5295 56.8751 11.3827 56.9135 11.3128 56.9852C11.1712 57.1287 11.0314 57.1186 10.8584 57.0786C10.016 56.8868 9.25397 56.5365 8.5741 56.0277C8.40982 55.9059 8.25602 55.7625 8.12668 55.609C7.59537 54.9768 7.67577 54.5698 7.98512 54.071C8.10396 53.8808 8.18261 53.6607 8.24029 53.4455C8.36612 52.9817 8.48846 52.5147 8.56886 52.0426C8.6545 51.5455 8.71392 51.0401 8.74014 50.5363C8.77859 49.7906 8.72266 49.0383 8.8048 48.2994C8.90617 47.3869 9.08095 46.4811 9.27145 45.5803C9.82024 42.9931 10.5176 40.4409 11.3949 37.9354C11.505 37.6201 11.5785 37.2915 11.6344 36.9646C11.6921 36.6309 11.8459 36.344 12.1098 36.1422C12.8176 35.6 13.2143 34.9211 13.3734 34.0587C13.4852 33.4565 13.8225 32.9144 14.2787 32.459C14.5688 32.1704 14.9026 31.9736 15.3273 31.9285C15.6035 31.9002 15.8761 31.8501 16.1977 31.8018C16.3043 31.9919 16.4302 32.1804 16.521 32.3839C16.6469 32.6658 16.7552 32.9544 16.8566 33.2447C17.3792 34.7493 18.2251 36.0721 19.3157 37.2548C20.3993 38.4275 21.7852 39.053 23.3931 39.2682C24.288 39.3867 25.181 39.3917 26.0567 39.1765C26.539 39.058 27.0022 38.8612 27.4636 38.676C27.876 38.5109 28.2745 38.3191 28.6765 38.1306C28.895 38.0288 29.0785 38.0288 29.3022 38.1522C32.1195 39.7069 34.9421 41.2549 37.7682 42.7946C37.9902 42.9164 38.095 43.0648 38.1038 43.3C38.1247 43.9523 38.1719 44.6045 38.1684 45.2567C38.1545 48.0174 38.1212 50.7782 38.1038 53.5389C38.095 55.0335 38.102 56.5281 38.102 58.0228C38.1073 58.1095 38.1073 58.1879 38.1073 58.2763Z" fill="#654D75"/>
<path d="M26.6966 35.1272C26.5726 35.0688 26.445 35.0171 26.3244 34.9503C18.699 30.7834 11.0754 26.6165 3.45008 22.4479C3.319 22.3762 3.19142 22.2978 3.05859 22.2193C3.28056 21.9992 37.3823 3.07615 37.9817 2.83594C38.1233 2.96438 38.1216 3.13786 38.1216 3.30634C38.1216 3.68 38.1093 4.05366 38.1093 4.42731C38.1093 12.5393 38.1093 20.6513 38.1093 28.765C38.1093 28.9218 38.1093 29.0803 38.1093 29.3005C37.9905 29.2221 37.9101 29.1854 37.8507 29.1286C36.9785 28.3013 36.1047 27.4739 35.243 26.6365C35.0805 26.478 34.9617 26.2745 34.8323 26.086C34.71 25.9075 34.6121 25.7124 34.4793 25.5422C34.114 25.0735 33.518 24.8733 32.9535 25.1018C32.5498 25.2653 32.1566 25.4955 31.8192 25.7641C30.8755 26.5147 29.9492 27.2871 29.0421 28.0777C28.142 28.8634 27.3416 29.7375 26.777 30.7834C26.1846 31.881 25.9836 33.0237 26.3838 34.2231C26.4799 34.5133 26.6285 34.7885 26.7526 35.0721C26.7333 35.0905 26.7141 35.1088 26.6966 35.1272Z" fill="#A179A6"/>
<path d="M3.08203 63.214C3.87201 62.7769 4.59556 62.3766 5.31913 61.9762C7.37446 60.8402 9.43154 59.7076 11.4816 58.5649C11.7176 58.4332 11.9011 58.4015 12.1685 58.5232C12.92 58.8619 13.7362 58.9986 14.5559 59.0954C15.6412 59.2238 16.7283 59.2639 17.8084 59.0504C18.2908 58.9553 18.7522 58.8168 19.1297 58.4865C19.2101 58.4165 19.3552 58.3831 19.4688 58.3814C19.9441 58.3764 20.4195 58.3831 20.8932 58.4065C21.0015 58.4115 21.1291 58.4765 21.2078 58.5516C21.7845 59.0971 22.4853 59.3423 23.2823 59.3756C23.5742 59.3873 23.8381 59.3239 24.0653 59.1488C24.261 58.9986 24.476 58.9469 24.7259 58.9569C25.1454 58.972 25.5648 58.9686 25.9843 58.9586C26.1888 58.9536 26.3496 59.017 26.5278 59.1154C26.8879 59.3139 27.2584 59.5141 27.6516 59.6309C28.4346 59.8611 29.097 59.6192 29.5409 58.967C29.6825 58.7584 29.8311 58.68 30.081 58.6951C30.3729 58.7134 30.6682 58.7051 30.9618 58.6967C31.1419 58.6917 31.2642 58.7317 31.376 58.8936C31.4862 59.0537 31.6539 59.1972 31.8287 59.2939C32.5663 59.6993 33.7337 59.5041 34.2843 58.8819C34.4101 58.7401 34.5272 58.69 34.709 58.7034C35.0428 58.7301 35.3784 58.7384 35.7104 58.7551C35.7349 58.7734 35.7664 58.7851 35.7751 58.8051C36.0495 59.5158 36.6612 59.7159 37.3708 59.7593C37.605 59.7726 37.8427 59.761 38.1188 59.761C38.1188 67.3175 38.1188 74.834 38.1188 82.3555C38.1188 82.3555 38.1066 82.3622 38.0943 82.3672C38.0821 82.3722 38.0629 82.3838 38.0559 82.3805C26.4841 76.0484 14.9124 69.7146 3.34244 63.3791C3.27428 63.3407 3.20962 63.2957 3.08203 63.214Z" fill="#825D8A"/>
<path d="M75.3691 61.8451C72.9136 60.5173 70.5332 59.2312 68.1021 57.915C68.2402 57.83 68.3363 57.7649 68.4376 57.7065C69.4443 57.1327 70.3339 56.4304 71.0121 55.5096C71.6133 54.6939 71.9698 53.7998 71.9349 52.7823C71.9069 51.9999 71.6482 51.2926 71.234 50.6304C71.054 50.3452 70.8408 50.0766 70.6765 49.783C70.3619 49.2192 69.8603 48.8689 69.2538 48.667C68.7435 48.4952 68.2139 48.3568 67.6809 48.2684C66.5029 48.0715 65.4001 47.6612 64.2815 47.2808C62.0847 46.5302 59.9507 45.6344 57.8132 44.747C57.6751 44.6886 57.5371 44.6152 57.42 44.5251C54.5921 42.3683 51.7661 40.2064 48.9417 38.0462C48.8893 38.0062 48.8439 37.9595 48.7617 37.8861C57.6 33.0169 66.4138 28.1593 75.2818 23.2734C75.2887 23.4269 75.294 23.527 75.2992 23.6271C75.301 23.6538 75.2992 23.6805 75.2992 23.7071C75.308 29.8308 75.3132 35.9561 75.3254 42.0797C75.3307 45.3875 75.3482 48.6971 75.3552 52.0049C75.3621 55.1677 75.3656 58.3304 75.3691 61.4915C75.3691 61.5832 75.3691 61.6749 75.3691 61.8451Z" fill="#865793"/>
<path d="M65.8199 58.3096C66.1449 58.458 66.456 58.5765 66.7427 58.7349C69.2681 60.1328 71.7884 61.539 74.3103 62.9419C74.382 62.9819 74.4502 63.0253 74.5847 63.1037C62.9256 69.5726 51.3102 76.0182 39.6371 82.4938C39.6249 82.3337 39.6179 82.2336 39.6109 82.1352C39.6092 82.1218 39.6109 82.1085 39.6109 82.0951C39.6022 79.0275 39.5952 75.9581 39.5865 72.8905C39.5725 68.475 39.5567 64.0595 39.541 59.6441C39.541 59.4856 39.541 59.3271 39.541 59.132C39.8504 59.1787 40.1213 59.2254 40.3922 59.2604C40.67 59.2954 40.7225 59.5356 40.8221 59.7108C41.093 60.1895 41.5352 60.378 42.0612 60.4047C42.7516 60.4414 43.3598 60.2029 43.8457 59.7458C44.0834 59.5223 44.3088 59.3888 44.6461 59.4355C44.7807 59.4539 44.924 59.4305 45.0638 59.4155C45.3173 59.3872 45.4903 59.4839 45.686 59.6474C46.4393 60.2796 47.3237 60.4181 48.2657 60.1161C48.4754 60.0494 48.6764 59.8776 48.8092 59.7041C48.9543 59.5156 49.1098 59.4389 49.3335 59.4539C49.8072 59.4839 50.2808 59.5056 50.7527 59.5556C50.8576 59.5673 50.9782 59.6657 51.0411 59.7558C51.3871 60.2646 51.9167 60.4081 52.4952 60.393C53.231 60.373 53.9388 60.2446 54.5016 59.7225C54.5785 59.6524 54.7253 59.6157 54.8371 59.6207C55.3527 59.6391 55.87 59.6641 56.3839 59.7141C56.5202 59.7275 56.6793 59.8092 56.7701 59.9076C57.0585 60.2212 57.3993 60.2996 57.8205 60.2546C58.3745 60.1929 58.9356 60.1895 59.4913 60.1361C59.6766 60.1178 59.8811 60.0628 60.0279 59.961C60.7357 59.4706 61.5694 59.3588 62.3926 59.227C62.5621 59.2003 62.7841 59.2771 62.9379 59.3738C63.4867 59.7175 64.0197 59.6524 64.5633 59.3855C65.0544 59.1386 65.4563 58.7967 65.8199 58.3096Z" fill="#865793"/>
<path d="M47.3177 38.666C48.1916 39.3299 49.0305 39.9705 49.8746 40.606C52.1117 42.2942 54.3488 43.9806 56.5894 45.6637C57.2099 46.1291 57.9229 46.4444 58.6535 46.7113C60.5043 47.3886 62.3709 48.0258 64.2165 48.7181C65.3421 49.1401 66.4938 49.4337 67.6875 49.5888C67.8535 49.6105 68.0161 49.6522 68.1786 49.6922C68.8445 49.8574 69.3793 50.196 69.7149 50.7798C69.9159 51.1301 70.1221 51.4804 70.2689 51.8524C70.6534 52.8183 70.5153 53.7441 69.9194 54.5965C69.6887 54.9268 69.4265 55.2554 69.1137 55.5106C68.5421 55.9777 67.9234 56.393 67.317 56.8201C67.1842 56.9135 67.0199 56.9669 66.8696 57.0353C66.6826 57.1203 66.5113 57.117 66.3138 57.0269C65.4609 56.6332 65.2057 56.8051 64.837 57.4356C64.5765 57.8793 64.1291 58.0128 63.68 58.1562C63.6118 58.1779 63.5122 58.1596 63.4458 58.1262C62.9774 57.8843 62.4705 57.8877 61.9724 57.956C61.4481 58.0278 60.9273 58.1345 60.4169 58.268C60.1268 58.3447 59.8542 58.4915 59.5903 58.6366C59.405 58.7384 59.232 58.8318 59.0118 58.8351C58.802 58.8385 58.5941 58.8618 58.3861 58.8852C57.9911 58.9302 57.6503 58.8568 57.2763 58.6817C56.4269 58.283 55.4988 58.1429 54.5481 58.1996C54.2247 58.2196 53.9486 58.3347 53.7546 58.5866C53.5623 58.8368 53.3177 58.9436 52.9943 58.8985C52.9262 58.8885 52.8545 58.8952 52.7863 58.9069C52.3983 58.9736 52.0838 58.9035 51.8531 58.5532C51.708 58.333 51.4686 58.2396 51.1714 58.2346C50.7118 58.2263 50.2556 58.1495 49.796 58.1279C49.4499 58.1129 49.0986 58.1212 48.7543 58.1529C48.3786 58.1879 48.0552 58.3481 47.8543 58.67C47.7546 58.8285 47.6148 58.8735 47.4348 58.8835C47.0573 58.9052 46.7252 58.8568 46.4858 58.5215C46.2306 58.1629 45.8671 58.0194 45.3987 58.0695C44.9146 58.1229 44.4235 58.1179 43.9358 58.1529C43.4937 58.1846 43.1231 58.3581 42.9029 58.7417C42.7107 59.0753 42.3891 58.9169 42.113 58.9869C42.0221 58.8401 41.9312 58.7217 41.87 58.5899C41.7145 58.258 41.4436 58.0628 41.0853 57.9861C40.6781 57.8993 40.2639 57.8343 39.8531 57.7642C39.7588 57.7475 39.6626 57.7459 39.5508 57.7342C39.5508 52.8049 39.5508 47.899 39.5508 42.9681C42.1217 41.5452 44.7048 40.1139 47.3177 38.666Z" fill="#6E4E7E"/>
<path d="M2.28886 23.3418C6.67915 25.7455 10.9838 28.1042 15.3444 30.4913C15.1958 30.5497 15.1242 30.5931 15.0473 30.6064C13.871 30.8233 13.0881 31.5205 12.5393 32.4914C12.2457 33.0101 12.0307 33.5589 11.9416 34.1461C11.9014 34.4097 11.7895 34.6265 11.5798 34.8017C11.5483 34.8284 11.5238 34.8617 11.4906 34.8851C10.7496 35.4222 10.4088 36.1662 10.1938 37.0119C9.99983 37.7726 9.68349 38.5049 9.43356 39.2539C8.78516 41.1989 8.3657 43.1989 7.91304 45.1907C7.65613 46.3166 7.5635 47.4543 7.4866 48.5986C7.41319 49.6895 7.33804 50.7805 7.21745 51.8664C7.17375 52.2568 7.00423 52.6354 6.87664 53.0157C6.74556 53.4094 6.58827 53.7947 6.45544 54.1867C6.22124 54.869 6.35232 55.5079 6.7543 56.0951C7.34503 56.9608 8.15947 57.5663 9.17665 57.9233C9.27627 57.9583 9.37414 57.9934 9.53318 58.0517C7.09685 59.4012 4.71295 60.7207 2.28711 62.0635C2.28886 49.1374 2.28886 36.283 2.28886 23.3418Z" fill="#825D8A"/>
<path d="M33.3393 26.3457C33.4896 26.5592 33.6347 26.7194 33.7256 26.9062C33.8689 27.2014 34.0611 27.4533 34.2971 27.6869C34.7724 28.1556 35.2338 28.6394 35.7022 29.1164C35.8071 29.2232 35.9172 29.3266 36.0326 29.4234C37.6877 30.8179 39.3288 32.2274 41.0048 33.5986C42.5743 34.8831 44.1822 36.1275 45.7726 37.3902C45.9072 37.497 46.0348 37.6154 46.2061 37.7622C43.7313 39.1384 41.3107 40.4862 38.8761 41.8424C38.4794 41.6289 38.0914 41.4187 37.7034 41.2102C35.3702 39.9491 33.0369 38.6847 30.6985 37.4303C30.4555 37.3002 30.3035 37.1534 30.2983 36.8831C30.2878 36.346 30.0518 35.984 29.517 35.7371C28.9647 35.4803 28.5068 35.0732 28.1083 34.6162C27.4704 33.8855 27.3201 33.0748 27.6644 32.1841C28.028 31.2416 28.6449 30.4509 29.3457 29.7186C29.6656 29.3833 29.9976 29.058 30.3559 28.7611C31.3189 27.9638 32.2959 27.1881 33.3393 26.3457Z" fill="#AA73B0"/>
<path d="M17.9188 31.9746C18.0202 32.0146 18.1268 32.0447 18.2212 32.0947C21.25 33.7428 24.2788 35.3942 27.3058 37.0457C27.388 37.0907 27.4649 37.1441 27.5855 37.2208C27.4596 37.2875 27.3723 37.3426 27.2779 37.3809C25.9409 37.9448 24.5637 38.1833 23.12 37.8347C21.769 37.5077 20.7047 36.7587 19.8238 35.7562C18.915 34.7186 18.3155 33.5243 17.917 32.2332C17.8943 32.1581 17.8996 32.0764 17.8926 31.998L17.9188 31.9746Z" fill="#825D8A"/>
<path d="M17.8841 31.9923C17.8681 31.9769 17.85 31.9615 17.834 31.948C17.844 31.9384 17.86 31.9211 17.86 31.923C17.8781 31.9365 17.8941 31.9519 17.9102 31.9672C17.9122 31.9653 17.8841 31.9923 17.8841 31.9923Z" fill="#FDFDFD"/>
<path d="M26.7369 35.0752C26.745 35.1016 26.7514 35.1295 26.7595 35.1558C26.7337 35.145 26.7094 35.1357 26.6836 35.1248C26.6997 35.1093 26.7175 35.0923 26.7369 35.0752Z" fill="white"/>
</svg>
