<svg width="344" height="266" viewBox="0 0 344 266" fill="none" xmlns="http://www.w3.org/2000/svg">
<path d="M161.681 15.93C161.681 15.93 162.836 15.545 162.836 14.225C162.836 13.125 161.901 12.19 160.526 12.19C158.986 12.19 158.216 13.235 158.216 13.235L158.766 13.84C158.766 13.84 159.371 12.96 160.526 12.96C161.461 12.96 162.011 13.51 162.011 14.225C162.011 15.05 161.461 15.6 160.526 15.6H159.756V16.37H160.526C161.648 16.37 162.341 17.074 162.341 17.855C162.341 18.68 161.681 19.34 160.526 19.34C159.151 19.34 158.491 18.405 158.491 18.405L157.941 18.955C157.941 18.955 158.766 20.11 160.526 20.11C162.121 20.11 163.111 19.01 163.111 17.855C163.111 16.26 161.681 15.93 161.681 15.93ZM168.826 17.58V12.3H167.781L164.096 17.415V18.35H168.001V20H168.826V18.35H169.816V17.58H168.826ZM168.001 17.58H164.866L168.001 13.235V17.58ZM170.641 17.36C170.641 18.9 171.851 20.11 173.281 20.11C174.656 20.11 175.481 19.01 175.481 19.01L174.931 18.515C174.931 18.515 174.326 19.395 173.281 19.395C172.291 19.395 171.411 18.515 171.411 17.36C171.411 16.205 172.291 15.325 173.281 15.325C174.326 15.325 174.876 16.205 174.876 16.205L175.426 15.655C175.426 15.655 174.656 14.61 173.281 14.61C171.851 14.61 170.641 15.82 170.641 17.36ZM181.307 16.095V20H182.077V14.72H181.472L179.382 17.36L177.292 14.72H176.687V20H177.457V16.095L179.382 18.515L181.307 16.095Z" fill="black"/>
<path d="M316.867 156.93C316.867 156.93 318.022 156.545 318.022 155.225C318.022 154.125 317.087 153.19 315.712 153.19C314.172 153.19 313.402 154.235 313.402 154.235L313.952 154.84C313.952 154.84 314.557 153.96 315.712 153.96C316.647 153.96 317.197 154.51 317.197 155.225C317.197 156.05 316.647 156.6 315.712 156.6H314.942V157.37H315.712C316.834 157.37 317.527 158.074 317.527 158.855C317.527 159.68 316.867 160.34 315.712 160.34C314.337 160.34 313.677 159.405 313.677 159.405L313.127 159.955C313.127 159.955 313.952 161.11 315.712 161.11C317.307 161.11 318.297 160.01 318.297 158.855C318.297 157.26 316.867 156.93 316.867 156.93ZM324.013 158.58V153.3H322.968L319.283 158.415V159.35H323.188V161H324.013V159.35H325.003V158.58H324.013ZM323.188 158.58H320.053L323.188 154.235V158.58ZM325.827 158.36C325.827 159.9 327.037 161.11 328.467 161.11C329.842 161.11 330.667 160.01 330.667 160.01L330.117 159.515C330.117 159.515 329.512 160.395 328.467 160.395C327.477 160.395 326.597 159.515 326.597 158.36C326.597 157.205 327.477 156.325 328.467 156.325C329.512 156.325 330.062 157.205 330.062 157.205L330.612 156.655C330.612 156.655 329.842 155.61 328.467 155.61C327.037 155.61 325.827 156.82 325.827 158.36ZM336.493 157.095V161H337.263V155.72H336.658L334.568 158.36L332.478 155.72H331.873V161H332.643V157.095L334.568 159.515L336.493 157.095Z" fill="black"/>
<path d="M185.681 128.93C185.681 128.93 186.836 128.545 186.836 127.225C186.836 126.125 185.901 125.19 184.526 125.19C182.986 125.19 182.216 126.235 182.216 126.235L182.766 126.84C182.766 126.84 183.371 125.96 184.526 125.96C185.461 125.96 186.011 126.51 186.011 127.225C186.011 128.05 185.461 128.6 184.526 128.6H183.756V129.37H184.526C185.648 129.37 186.341 130.074 186.341 130.855C186.341 131.68 185.681 132.34 184.526 132.34C183.151 132.34 182.491 131.405 182.491 131.405L181.941 131.955C181.941 131.955 182.766 133.11 184.526 133.11C186.121 133.11 187.111 132.01 187.111 130.855C187.111 129.26 185.681 128.93 185.681 128.93ZM192.826 130.58V125.3H191.781L188.096 130.415V131.35H192.001V133H192.826V131.35H193.816V130.58H192.826ZM192.001 130.58H188.866L192.001 126.235V130.58ZM194.641 130.36C194.641 131.9 195.851 133.11 197.281 133.11C198.656 133.11 199.481 132.01 199.481 132.01L198.931 131.515C198.931 131.515 198.326 132.395 197.281 132.395C196.291 132.395 195.411 131.515 195.411 130.36C195.411 129.205 196.291 128.325 197.281 128.325C198.326 128.325 198.876 129.205 198.876 129.205L199.426 128.655C199.426 128.655 198.656 127.61 197.281 127.61C195.851 127.61 194.641 128.82 194.641 130.36ZM205.307 129.095V133H206.077V127.72H205.472L203.382 130.36L201.292 127.72H200.687V133H201.457V129.095L203.382 131.515L205.307 129.095Z" fill="black"/>
<path d="M9.36736 160.93C9.36736 160.93 10.5224 160.545 10.5224 159.225C10.5224 158.125 9.58736 157.19 8.21236 157.19C6.67236 157.19 5.90236 158.235 5.90236 158.235L6.45236 158.84C6.45236 158.84 7.05736 157.96 8.21236 157.96C9.14736 157.96 9.69736 158.51 9.69736 159.225C9.69736 160.05 9.14736 160.6 8.21236 160.6H7.44236V161.37H8.21236C9.33436 161.37 10.0274 162.074 10.0274 162.855C10.0274 163.68 9.36736 164.34 8.21236 164.34C6.83736 164.34 6.17736 163.405 6.17736 163.405L5.62736 163.955C5.62736 163.955 6.45236 165.11 8.21236 165.11C9.80736 165.11 10.7974 164.01 10.7974 162.855C10.7974 161.26 9.36736 160.93 9.36736 160.93ZM16.5126 162.58V157.3H15.4676L11.7826 162.415V163.35H15.6876V165H16.5126V163.35H17.5026V162.58H16.5126ZM15.6876 162.58H12.5526L15.6876 158.235V162.58ZM18.3272 162.36C18.3272 163.9 19.5372 165.11 20.9672 165.11C22.3422 165.11 23.1672 164.01 23.1672 164.01L22.6172 163.515C22.6172 163.515 22.0122 164.395 20.9672 164.395C19.9772 164.395 19.0972 163.515 19.0972 162.36C19.0972 161.205 19.9772 160.325 20.9672 160.325C22.0122 160.325 22.5622 161.205 22.5622 161.205L23.1122 160.655C23.1122 160.655 22.3422 159.61 20.9672 159.61C19.5372 159.61 18.3272 160.82 18.3272 162.36ZM28.9933 161.095V165H29.7633V159.72H29.1583L27.0683 162.36L24.9783 159.72H24.3733V165H25.1433V161.095L27.0683 163.515L28.9933 161.095Z" fill="black"/>
<path d="M170.556 259.75C135.534 259.75 107.798 254.579 107.798 254.579V145.868C98.5133 176.307 93.2246 206.393 85.3504 264.333C76.0659 265.391 64.3134 264.216 55.8516 261.16C59.965 219.086 64.7835 169.49 74.5381 135.29C83.47 114.136 87.7009 102.031 101.686 81.9337L143.878 66.773L147.874 56.9008C147.874 56.9008 153.75 52.6699 170.674 52.6699" stroke="#7F8080" stroke-miterlimit="10"/>
<path d="M143.583 183.962L115.328 212.217L119.899 216.787L148.153 188.533L143.583 183.962Z" stroke="#7F8080" stroke-miterlimit="10"/>
<path d="M101.57 81.9395C101.57 81.9395 114.733 108.618 107.799 145.873" stroke="#7F8080" stroke-width="0.5" stroke-miterlimit="10"/>
<path d="M170.557 61.9559C170.557 61.9559 159.392 61.8384 151.988 64.4239" stroke="#7F8080" stroke-miterlimit="10"/>
<path d="M170.556 76.2939H165.973V259.751" stroke="#7F8080" stroke-miterlimit="10"/>
<path d="M197.446 184.002L192.875 188.572L221.13 216.827L225.7 212.256L197.446 184.002Z" stroke="#7F8080" stroke-miterlimit="10"/>
<path d="M197.231 66.78C195.351 78.6501 182.893 88.6397 182.893 88.6397L175.137 76.4171C175.137 76.4171 190.415 67.3676 193.353 57.0254" stroke="#7F8080" stroke-miterlimit="10"/>
<path d="M170.559 61.9559C170.559 61.9559 181.724 61.8384 189.128 64.4239" stroke="#7F8080" stroke-miterlimit="10"/>
<path d="M170.559 76.2939H175.142V259.751" stroke="#7F8080" stroke-miterlimit="10"/>
<path d="M107.801 243.416C107.801 243.416 131.658 248.117 165.976 248.47" stroke="#7F8080" stroke-width="0.5" stroke-miterlimit="10"/>
<path d="M233.312 243.416C233.312 243.416 209.454 248.117 175.137 248.47" stroke="#7F8080" stroke-width="0.5" stroke-miterlimit="10"/>
<path d="M143.758 66.78C145.638 78.6501 158.096 88.6397 158.096 88.6397L165.853 76.4171C165.853 76.4171 150.574 67.3676 147.636 57.0254" stroke="#7F8080" stroke-miterlimit="10"/>
<path d="M101.57 81.9395C101.57 81.9395 114.733 108.618 107.799 145.873" stroke="#7F8080" stroke-width="0.5" stroke-miterlimit="10"/>
<path d="M56.5547 252.466C56.5547 252.466 75.5938 257.519 86.4061 255.404" stroke="#7F8080" stroke-width="0.5" stroke-miterlimit="10"/>
<path d="M170.559 259.75C205.581 259.75 233.317 254.579 233.317 254.579V145.868C242.602 176.307 247.891 206.393 255.765 264.333C265.049 265.391 276.802 264.216 285.264 261.16C281.15 219.086 276.332 169.49 266.577 135.29C257.645 114.136 253.414 102.031 239.429 81.9337L197.237 66.773L193.241 56.9008C193.241 56.9008 187.365 52.6699 170.441 52.6699" stroke="#7F8080" stroke-miterlimit="10"/>
<path d="M239.426 81.9395C239.426 81.9395 226.263 108.618 233.197 145.873" stroke="#7F8080" stroke-width="0.5" stroke-miterlimit="10"/>
<path d="M284.437 252.466C284.437 252.466 265.398 257.519 254.586 255.404" stroke="#7F8080" stroke-width="0.5" stroke-miterlimit="10"/>
<path d="M168.559 61.7188H170.321" stroke="#21211F" stroke-width="0.25" stroke-miterlimit="10"/>
<path d="M173.727 61.7188H297.011" stroke="#21211F" stroke-width="0.25" stroke-miterlimit="10" stroke-dasharray="2.95 2.95"/>
<path d="M298.66 61.7188H300.423" stroke="#21211F" stroke-width="0.25" stroke-miterlimit="10"/>
<path d="M168.559 259.75H170.321" stroke="#21211F" stroke-width="0.25" stroke-miterlimit="10"/>
<path d="M173.727 259.75H297.011" stroke="#21211F" stroke-width="0.25" stroke-miterlimit="10" stroke-dasharray="2.95 2.95"/>
<path d="M298.66 259.75H300.423" stroke="#21211F" stroke-width="0.25" stroke-miterlimit="10"/>
<path d="M300.422 67.0068V254.577" stroke="#21211F" stroke-width="0.5" stroke-miterlimit="10"/>
<path d="M298.773 68.0651L300.419 61.7188L302.182 68.0651H298.773Z" fill="#21211F"/>
<path d="M298.773 253.529L300.419 259.876L302.182 253.529H298.773Z" fill="#21211F"/>
<path d="M101.57 81.9377V80.1748" stroke="#21211F" stroke-width="0.25" stroke-miterlimit="10"/>
<path d="M101.57 76.8862V38.6904" stroke="#21211F" stroke-width="0.25" stroke-miterlimit="10" stroke-dasharray="2.83 2.83"/>
<path d="M101.57 37.0383V35.2754" stroke="#21211F" stroke-width="0.25" stroke-miterlimit="10"/>
<path d="M239.426 81.9367V80.1738" stroke="#21211F" stroke-width="0.25" stroke-miterlimit="10"/>
<path d="M239.426 76.8862V38.6904" stroke="#21211F" stroke-width="0.25" stroke-miterlimit="10" stroke-dasharray="2.83 2.83"/>
<path d="M239.426 37.0383V35.2754" stroke="#21211F" stroke-width="0.25" stroke-miterlimit="10"/>
<path d="M106.859 34.9297H234.257" stroke="#21211F" stroke-width="0.5" stroke-miterlimit="10"/>
<path d="M108.034 36.6895L101.57 34.9266L108.034 33.2812V36.6895Z" fill="#21211F"/>
<path d="M233.078 36.6895L239.425 34.9266L233.078 33.2812V36.6895Z" fill="#21211F"/>
<path d="M56.4422 261.519L54.7969 261.166" stroke="#21211F" stroke-width="0.25" stroke-miterlimit="10"/>
<path d="M50.9117 260.345L29.9922 255.879" stroke="#21211F" stroke-width="0.25" stroke-miterlimit="10" stroke-dasharray="3.32 3.32"/>
<path d="M28.1144 255.409L26.3516 255.057" stroke="#21211F" stroke-width="0.25" stroke-miterlimit="10"/>
<path d="M102.036 82.5225L100.391 82.1699" stroke="#21211F" stroke-width="0.25" stroke-miterlimit="10"/>
<path d="M96.6348 81.3454L68.7812 75.3516" stroke="#21211F" stroke-width="0.25" stroke-miterlimit="10" stroke-dasharray="3.23 3.23"/>
<path d="M66.8954 75.001L65.25 74.6484" stroke="#21211F" stroke-width="0.25" stroke-miterlimit="10"/>
<path d="M27.5273 250.002L64.0777 79.708" stroke="#21211F" stroke-width="0.5" stroke-miterlimit="10"/>
<path d="M29.4082 249.173L26.3526 255.049L26 248.468L29.4082 249.173Z" fill="#21211F"/>
<path d="M65.486 81.2299L65.251 74.6484L62.1953 80.5247L65.486 81.2299Z" fill="#21211F"/>
<path d="M56.3225 164.792C56.3225 170.668 51.6215 175.369 45.7452 175.369C39.869 175.369 35.168 170.668 35.168 164.792C35.168 158.916 39.869 154.215 45.7452 154.215C51.6215 154.215 56.3225 159.033 56.3225 164.792Z" fill="white"/>
<path d="M113.203 145.87H227.908" stroke="#21211F" stroke-width="0.5" stroke-miterlimit="10"/>
<path d="M114.378 147.512L108.031 145.866L114.378 144.104V147.512Z" fill="#21211F"/>
<path d="M226.734 147.512L233.081 145.866L226.734 144.104V147.512Z" fill="#21211F"/>
<path d="M310.998 160.794C310.998 166.67 306.297 171.371 300.421 171.371C294.545 171.371 289.844 166.67 289.844 160.794C289.844 154.918 294.545 150.217 300.421 150.217C306.297 150.217 310.998 154.918 310.998 160.794Z" fill="white"/>
<path d="M181.135 145.869C181.135 151.746 176.434 156.447 170.558 156.447C164.681 156.447 159.98 151.746 159.98 145.869C159.98 139.993 164.681 135.292 170.558 135.292C176.434 135.292 181.135 139.993 181.135 145.869Z" fill="white"/>
<path d="M181.135 34.9298C181.135 40.8061 176.434 45.5071 170.558 45.5071C164.681 45.5071 159.98 40.8061 159.98 34.9298C159.98 29.0536 164.681 24.3525 170.558 24.3525C176.434 24.3525 181.135 29.1711 181.135 34.9298Z" fill="white"/>
<path d="M166.644 33.68C166.644 36.2 168.624 38.18 170.964 38.18C173.214 38.18 174.564 36.38 174.564 36.38L173.664 35.57C173.664 35.57 172.674 37.01 170.964 37.01C169.344 37.01 167.904 35.57 167.904 33.68C167.904 31.79 169.344 30.35 170.964 30.35C172.674 30.35 173.574 31.79 173.574 31.79L174.474 30.89C174.474 30.89 173.214 29.18 170.964 29.18C168.624 29.18 166.644 31.16 166.644 33.68Z" fill="black"/>
<path d="M299.573 158.806C297.953 159.076 297.053 159.976 297.053 161.416C297.053 162.676 298.313 163.936 300.113 163.936C302.003 163.936 302.903 162.586 302.903 162.586V163.756H304.163V158.266C304.163 156.376 302.723 154.936 300.743 154.936C298.673 154.936 297.503 156.556 297.503 156.556L298.313 157.366C298.313 157.366 299.213 156.106 300.743 156.106C302.003 156.106 302.903 157.006 302.903 158.266L299.573 158.806ZM300.113 162.766C298.943 162.766 298.313 162.136 298.313 161.416C298.313 160.606 298.853 160.084 299.933 159.886L302.903 159.346V159.886C302.903 161.596 301.733 162.766 300.113 162.766Z" fill="black"/>
<path d="M169.035 145.326C169.035 143.526 170.565 141.996 172.095 141.996C173.535 141.996 174.975 143.436 174.975 145.326C174.975 147.216 173.535 148.656 172.095 148.656C170.565 148.656 169.035 147.126 169.035 145.326ZM169.035 137.046H167.775V149.646H169.035V148.296C169.035 148.296 170.115 149.826 172.095 149.826C174.255 149.826 176.235 147.846 176.235 145.326C176.235 142.806 174.255 140.826 172.095 140.826C170.115 140.826 169.035 142.356 169.035 142.356V137.046Z" fill="black"/>
<path d="M46.1537 164.129C46.1537 165.929 44.6237 167.459 43.0937 167.459C41.6537 167.459 40.2137 166.019 40.2137 164.129C40.2137 162.239 41.6537 160.799 43.0937 160.799C44.6237 160.799 46.1537 162.329 46.1537 164.129ZM46.1537 161.159C46.1537 161.159 45.0737 159.629 43.0937 159.629C40.9337 159.629 38.9537 161.609 38.9537 164.129C38.9537 166.649 40.9337 168.629 43.0937 168.629C45.0737 168.629 46.1537 167.099 46.1537 167.099V168.449H47.4137V155.849H46.1537V161.159Z" fill="black"/>
</svg>
