<svg width="32" height="32" viewBox="0 0 32 32" fill="none" xmlns="http://www.w3.org/2000/svg">
<path d="M28.5714 0.000197307H3.42869C2.51938 0.000197307 1.14288 -0.000193881 3.04153e-05 0.000141858C0.00012694 1.14295 0.00012694 2.51944 0.00012694 3.42875V28.5714C0.00012694 29.4808 0 30.857 0 31.9998C1.14285 31.9998 2.51938 32 3.42869 32H13.2322V21.1208H8.73224V16.0001H13.2322V12.0973C13.2322 7.65801 15.8751 5.20588 19.9229 5.20588C21.8615 5.20588 23.8886 5.55159 23.8886 5.55159V9.90871H21.655C19.4543 9.90871 18.7679 11.2744 18.7679 12.6751V16.0001H23.6807L22.895 21.1208H18.7679V32H28.5714C29.4808 32 30.857 31.9998 31.9999 31.9998C31.9999 30.857 32 29.4808 32 28.5714V3.42875C32 2.51944 31.9999 1.14285 31.9999 0C30.857 0 29.4808 0.000197307 28.5714 0.000197307Z" fill="#E1E1E1"/>
</svg>
