<svg width="32" height="32" viewBox="0 0 32 32" fill="none" xmlns="http://www.w3.org/2000/svg">
<path d="M32 3.93104e-05H1.28C0.572 3.93104e-05 0 0 0 0V32C0 32 0.572 32 1.28 32H30.72C31.428 32 32 32 32 32V1.28004C32 0.572038 32 3.93104e-05 32 3.93104e-05ZM22.68 23.424C21.056 24.92 18.84 25.8 16.196 25.8C12.368 25.8 9.056 23.604 7.444 20.404C6.75716 19.0376 6.39963 17.5294 6.4 16C6.4 14.416 6.78 12.92 7.444 11.596C9.056 8.39203 12.368 6.19603 16.196 6.19603C18.836 6.19603 21.052 7.16803 22.752 8.74803L19.944 11.56C18.928 10.588 17.636 10.096 16.2 10.096C13.648 10.096 11.488 11.82 10.716 14.136C10.52 14.724 10.408 15.352 10.408 16C10.408 16.648 10.52 17.276 10.716 17.864C11.488 20.18 13.648 21.904 16.196 21.904C17.516 21.904 18.636 21.556 19.512 20.968C20.552 20.272 21.24 19.236 21.468 18.008H16.196V14.216H25.424C25.54 14.86 25.6 15.528 25.6 16.22C25.6 19.208 24.532 21.716 22.68 23.424Z" fill="#E1E1E1"/>
</svg>
