<svg width="32" height="32" viewBox="0 0 32 32" fill="none" xmlns="http://www.w3.org/2000/svg">
<path d="M0 0V32H32V0H0ZM14.2051 8.55664C15.1111 8.54725 15.9973 8.64771 16.4297 8.66016C18.0323 8.70629 18.3154 9.51688 18.2949 10.1836C18.2649 11.1601 17.6367 15.2905 18.8008 15.6934C20.497 14.7863 21.6345 11.9691 22.4629 10.1836C22.8819 9.28045 22.8156 9.23557 23.7812 9.23437L27.6171 9.22851C28.5409 9.22736 28.5049 9.19496 28.8008 9.57227C29.489 10.4498 26.6289 14.1001 25.705 15.1094C24.0003 16.972 24.9949 17.6933 25.2695 17.9492C26.5418 19.1354 27.7711 20.3655 28.5351 21.5C29.1426 22.4019 28.8917 23.2417 28.1191 23.2734L24.0058 23.4434C22.6409 23.4995 20.5185 21.0526 20.1797 20.5195C19.9057 20.0798 18.5853 19.5287 18.4609 20.6523L18.2871 22.2206C18.1608 23.3417 17.3331 23.3156 16.6797 23.3437C12.1552 23.5383 10.6143 21.8157 8.33589 19.2733C6.666 16.9117 5.07243 14.5366 3.75192 11.6913C3.35667 10.8396 3.14731 10.2149 3.09371 9.55264C3.75813 9.03333 6.09032 9.25701 7.65621 9.22256C8.08451 9.21312 8.37349 9.45853 8.59957 9.94717C9.48173 11.8542 10.4438 13.7269 11.7168 15.3827C12.2711 15.8933 12.7612 16.0811 13.0058 15.0429C13.1479 15.0298 13.1365 13.3105 13.1445 12.0136C13.15 11.1231 13.0454 10.0551 11.5371 9.5624C11.8422 8.76269 13.0402 8.56872 14.2051 8.55664Z" fill="#E1E1E1"/>
</svg>
