<svg width="22" height="20" viewBox="0 0 22 20" fill="none" xmlns="http://www.w3.org/2000/svg">
<path d="M20.945 0.765297C20.7294 0.586571 20.4694 0.469525 20.1927 0.426568C19.9159 0.383611 19.6327 0.416344 19.373 0.521297L1.45602 7.7543C1.16649 7.87328 0.919997 8.0775 0.749259 8.33986C0.57852 8.60221 0.491613 8.9103 0.500076 9.22321C0.508539 9.53611 0.611971 9.83905 0.796641 10.0918C0.981311 10.3445 1.23848 10.5351 1.53402 10.6383L5.40002 11.9803L7.49502 18.9063C7.49902 18.9203 7.51202 18.9293 7.51802 18.9423C7.53961 18.9976 7.57113 19.0484 7.61102 19.0923C7.67164 19.16 7.74989 19.2095 7.83702 19.2353C7.84702 19.2393 7.85402 19.2483 7.86402 19.2503H7.87002L7.87302 19.2513C7.95039 19.2679 8.03078 19.2638 8.10602 19.2393C8.11402 19.2373 8.12202 19.2373 8.13102 19.2343C8.20327 19.2089 8.26865 19.1672 8.32202 19.1123C8.32802 19.1053 8.33802 19.1043 8.34402 19.0983L11.357 15.7723L15.754 19.1773C16.021 19.3863 16.35 19.4993 16.689 19.4993C17.423 19.4993 18.056 18.9853 18.207 18.2683L21.469 2.2503C21.5244 1.97837 21.5048 1.69653 21.4126 1.43482C21.3203 1.17312 21.1587 0.94137 20.945 0.764297V0.765297ZM8.58802 13.2953L7.88102 16.7323L6.40602 11.8543L13.721 8.0443L8.72402 13.0423C8.65482 13.1114 8.60752 13.1994 8.58802 13.2953ZM17.227 18.0673C17.2082 18.158 17.1665 18.2423 17.1057 18.3122C17.0449 18.3821 16.9672 18.4351 16.88 18.4663C16.7949 18.499 16.7028 18.5091 16.6127 18.4954C16.5226 18.4817 16.4376 18.4448 16.366 18.3883L11.603 14.6993C11.5035 14.6224 11.3786 14.5859 11.2533 14.597C11.128 14.6082 11.0115 14.6661 10.927 14.7593L8.83002 17.0703L9.53602 13.6433L16.725 6.4533C16.8092 6.36883 16.8604 6.25705 16.8695 6.13814C16.8785 6.01922 16.8447 5.901 16.7742 5.8048C16.7037 5.7086 16.6012 5.64077 16.4851 5.61354C16.3689 5.5863 16.2469 5.60147 16.141 5.6563L5.77802 11.0543L1.86102 9.6923C1.75717 9.658 1.66659 9.59218 1.60188 9.504C1.53718 9.41582 1.50158 9.30966 1.50002 9.2003C1.49504 9.08997 1.52452 8.98082 1.58437 8.888C1.64422 8.79518 1.73147 8.72329 1.83402 8.6823L19.748 1.4493C19.8398 1.41029 19.9407 1.39768 20.0393 1.41287C20.1378 1.42807 20.2302 1.47046 20.306 1.5353C20.3814 1.59629 20.4383 1.67702 20.4705 1.76849C20.5026 1.85997 20.5087 1.95857 20.488 2.0533L17.227 18.0683V18.0673Z" fill="#807F7D"/>
</svg>
