<svg width="24" height="13" viewBox="0 0 24 13" fill="none" xmlns="http://www.w3.org/2000/svg">
<path d="M0 1.78846C0 1.13462 0.458498 0.782051 1.37549 0.730769L4.90909 0.75C5.14625 0.75 5.30435 0.846154 5.3834 1.03846C5.74704 2 6.15415 2.83013 6.60474 3.52885C7.05534 4.22756 7.64427 5.03205 8.37154 5.94231C8.43478 6.05769 8.53755 6.11539 8.67984 6.11539C8.79051 6.11539 8.87747 6.07051 8.94071 5.98077L9.01186 5.76923L9.03557 2.44231C9.03557 2.21154 8.96838 2.05769 8.83399 1.98077C8.6996 1.90385 8.45059 1.84615 8.08696 1.80769C7.80237 1.76923 7.66008 1.62821 7.66008 1.38462C7.66008 1.33333 7.66798 1.29487 7.68379 1.26923C8.01581 0.435897 8.96443 0.0192308 10.5296 0.0192308L11.8577 0C12.4585 0 12.9565 0.121795 13.3518 0.365385C13.747 0.608974 13.9447 0.99359 13.9447 1.51923V5.88462C14.0553 5.94872 14.1581 5.98077 14.253 5.98077C14.4901 5.98077 14.6957 5.86539 14.8696 5.63462C16.6087 3.66026 17.5494 2.33974 17.6917 1.67308C17.6917 1.66026 17.7075 1.62821 17.7391 1.57692C17.8498 1.38462 18.0316 1.21795 18.2846 1.07692C18.5375 0.935897 18.7589 0.839744 18.9486 0.788462C19.0119 0.762821 19.083 0.75 19.1621 0.75H22.8379L23.0751 0.769231C23.3913 0.769231 23.6364 0.891026 23.8103 1.13462C23.8735 1.21154 23.917 1.29487 23.9407 1.38462C23.9644 1.47436 23.9802 1.5641 23.9881 1.65385C23.996 1.74359 24 1.79487 24 1.80769V1.94231C23.8893 2.46795 23.6087 3.02885 23.1581 3.625C22.7075 4.22115 22.1344 4.86538 21.4387 5.55769C20.7431 6.25 20.3083 6.70513 20.1344 6.92308C19.9921 7.07692 19.9209 7.21795 19.9209 7.34615C19.9209 7.44872 19.9842 7.5641 20.1107 7.69231L23.5731 11.2308C23.7628 11.4359 23.8577 11.6603 23.8577 11.9038C23.8577 12.1987 23.7154 12.4423 23.4308 12.6346C23.1462 12.8269 22.8063 12.9359 22.4111 12.9615L22.0079 12.9808H18.4032C18.3874 12.9808 18.3557 12.984 18.3083 12.9904C18.2609 12.9968 18.2292 13 18.2134 13C17.8656 13 17.5415 12.8782 17.2411 12.6346C17.1304 12.5321 16.3874 11.7756 15.0119 10.3654C14.9328 10.2756 14.8221 10.1923 14.6798 10.1154C14.6166 10.3205 14.5336 10.6154 14.4308 11C14.3281 11.3846 14.253 11.6603 14.2055 11.8269L14.1344 12.1538C13.9763 12.6026 13.6443 12.8718 13.1383 12.9615L12.8063 12.9808H10.4822C9.16996 12.9808 7.86166 12.4936 6.55731 11.5192C5.25296 10.5449 4.07905 9.28526 3.03557 7.74039C1.99209 6.19551 1.01976 4.39744 0.118577 2.34615C0.0395257 2.17949 0 1.99359 0 1.78846ZM14.253 6.76923C13.9209 6.76923 13.6206 6.69551 13.3518 6.54808C13.083 6.40064 12.9486 6.19872 12.9486 5.94231V1.51923C12.9486 1.26282 12.8696 1.08013 12.7115 0.971154C12.5534 0.86218 12.2767 0.807692 11.8814 0.807692L10.5296 0.846154C9.8498 0.846154 9.33597 0.942308 8.98814 1.13462C9.68379 1.40385 10.0316 1.83974 10.0316 2.44231V5.82692C10 6.14744 9.8419 6.41346 9.55731 6.625C9.27273 6.83654 8.95652 6.94231 8.6087 6.94231C8.13439 6.94231 7.77075 6.75641 7.51779 6.38462C6.28458 4.8718 5.36759 3.4359 4.7668 2.07692L4.55336 1.57692L1.39921 1.55769C1.19368 1.55769 1.07905 1.56731 1.05534 1.58654C1.03162 1.60577 1.01976 1.66026 1.01976 1.75C1.01976 1.86538 1.03557 1.98718 1.06719 2.11538L1.56522 3.19231C2.89328 5.97436 4.33597 8.16667 5.89328 9.76923C7.45059 11.3718 8.98024 12.1731 10.4822 12.1731H12.8538C12.9486 12.1731 13.0198 12.1506 13.0672 12.1058C13.1146 12.0609 13.1542 11.9744 13.1858 11.8462L13.2332 11.6538L13.6838 9.96154C13.8103 9.73077 13.9209 9.57692 14.0158 9.5C14.1897 9.35897 14.3953 9.28846 14.6324 9.28846C15.0119 9.28846 15.3992 9.47436 15.7945 9.84615L17.8103 11.9231C17.9368 12.0897 18.0711 12.1731 18.2134 12.1731H22.1265C22.6008 12.1731 22.8379 12.0769 22.8379 11.8846C22.8379 11.8205 22.8142 11.7564 22.7668 11.6923L19.3281 8.21154C19.0593 7.94231 18.9249 7.65385 18.9249 7.34615C18.9249 7.03846 19.0514 6.74359 19.3043 6.46154C19.5099 6.20513 19.9091 5.77885 20.502 5.18269C21.0949 4.58654 21.6126 4.02885 22.0553 3.50962C22.498 2.99038 22.7905 2.51923 22.9328 2.09615L23.004 1.84615C22.9881 1.82051 22.9802 1.77885 22.9802 1.72115C22.9802 1.66346 22.9723 1.61538 22.9565 1.57692H19.2332C18.996 1.65385 18.8063 1.76923 18.664 1.92308L18.5217 2.28846C18.1265 3.17308 17.0909 4.53846 15.415 6.38462C15.083 6.64103 14.6957 6.76923 14.253 6.76923Z" fill="#807F7D"/>
</svg>
